<svg id="Layer_1" data-name="Layer 1" xmlns="http://www.w3.org/2000/svg" viewBox="0 0 192.76 192.76"><defs><style>.cls-1{fill:#fff;}.cls-1,.cls-2,.cls-3{fill-rule:evenodd;}.cls-2{fill:#bf2f38;}.cls-3{fill:#17479e;}</style></defs><polygon class="cls-1" points="0 0 192.76 0 192.76 192.76 0 192.76 0 0 0 0"/><polygon class="cls-2" points="11.17 79.71 44.89 79.71 44.89 113.05 11.17 113.05 11.17 79.71 11.17 79.71"/><polygon class="cls-3" points="56.1 92.68 56.1 92.07 57.68 92.07 57.68 86.7 53.46 86.7 53.46 92.07 55.07 92.07 55.07 92.68 49.28 92.68 49.28 92.07 50.76 92.07 50.76 81.14 49.28 81.14 49.28 80.54 55.07 80.54 55.07 81.14 53.46 81.14 53.46 85.97 57.68 85.97 57.68 81.14 56.1 81.14 56.1 80.54 61.86 80.54 61.86 81.14 60.36 81.14 60.36 92.07 61.86 92.07 61.86 92.68 56.1 92.68 56.1 92.68"/><path class="cls-3" d="M1887.22,1064.53h2.63V1066h-2.63v-1.45Zm-1.29,12.15v-.59h1.41v-7.55h-1.41v-.6h4v8.15h1.35v.59Z" transform="translate(-1823 -984)"/><polygon class="cls-3" points="68.86 92.68 68.86 92.07 70.33 92.07 70.33 81.09 68.86 81.09 68.86 80.52 72.96 80.52 72.96 92.07 74.34 92.07 74.34 92.68 68.86 92.68 68.86 92.68"/><path class="cls-3" d="M1901.44,1076.68c-1.2,0-2.2-.55-2.2-1.87v-6.29h-1.43v-.58h1.43v-3.37h2.46v3.37h2v.58h-2v7.58h2.07v.58Z" transform="translate(-1823 -984)"/><path class="cls-3" d="M1909,1068.27c2.25,0,2,2.29,2.06,3.87v.56c0,1.5,0,3.72-2,3.72a1.86,1.86,0,0,1-1.73-1,8.69,8.69,0,0,1-.36-3.22c0-1.55-.07-4,2.08-4Zm4.9,4.22a4.67,4.67,0,0,0-4.89-4.79c-2.66,0-5,1.76-5,4.57s2.3,4.65,5.07,4.65,4.82-1.71,4.82-4.43Z" transform="translate(-1823 -984)"/><path class="cls-3" d="M1921.06,1076.68v-.58h1.16v-5.32c0-1,0-2.15-1.27-2.15a2.57,2.57,0,0,0-2.18,1.89,5.42,5.42,0,0,0-.09,1.33v4.25H1920v.58h-5.36v-.58h1.41v-7.55h-1.41v-.61h4v1.35a3.65,3.65,0,0,1,1.67-1.29,4.14,4.14,0,0,1,1.58-.33,4.75,4.75,0,0,1,1.19.17c1.43.41,1.77,1.34,1.77,2.68v5.58h1.38v.58Z" transform="translate(-1823 -984)"/><path class="cls-3" d="M1886.29,1089.15v4.45a8.07,8.07,0,0,1-6.82,3.15c-5.22,0-7.86-3.85-7.86-8.71a9.06,9.06,0,0,1,3-7.27,8.3,8.3,0,0,1,5.56-2,6.88,6.88,0,0,1,3.67,1.11l1.12-.83h.61v4.82h-1c-.46-2.68-1-4.21-4.13-4.21a3.64,3.64,0,0,0-3.92,2.7,18,18,0,0,0-.57,5.18,29.37,29.37,0,0,0,.35,5c.29,2,1.17,3.48,3.43,3.48a2.6,2.6,0,0,0,2.25-.85,1.89,1.89,0,0,0,.57-1.44v-4.55h-2.6v-1h8v1Z" transform="translate(-1823 -984)"/><path class="cls-3" d="M1896.09,1089.86v2.28a2.66,2.66,0,0,1-.84,2.3,2.16,2.16,0,0,1-1.3.49,2,2,0,0,1-2-2.18c0-2.47,2.21-2.76,4.18-2.89Zm5.5,6.55v-.83h-2v-8.11c0-1.64-.4-2.57-2-3.26a7.81,7.81,0,0,0-3-.54c-1.91,0-5.22.81-5.22,3.24a1.6,1.6,0,0,0,1.67,1.63,1.64,1.64,0,0,0,1.69-1.66c0-.69-.59-1.12-.59-1.59,0-.66,1.35-.86,1.79-.86,1.74,0,2.09.69,2.09,2.25V1089c-1.95.2-4.35.42-6,1.62a3.86,3.86,0,0,0-1.71,3.1c0,2.06,1.59,3,3.49,3a5.46,5.46,0,0,0,4.27-2,4,4,0,0,0,.42.83c.63.86,2.05.9,3,.9Z" transform="translate(-1823 -984)"/><path class="cls-3" d="M1912.26,1088.08a1.77,1.77,0,0,1-1.88-1.74c0-.78.51-1.19.51-1.39s-.24-.29-.41-.29c-.39,0-1.15.95-1.35,1.22a6.68,6.68,0,0,0-1.2,4.08v5.6h2.47v.85h-8.21v-.85h2v-10.71h-2V1084H1908v2.25c.93-1.47,1.78-2.64,3.69-2.64a2.42,2.42,0,0,1,2.59,2.47,1.88,1.88,0,0,1-2,2Z" transform="translate(-1823 -984)"/><path class="cls-3" d="M1921.54,1084.67a3.11,3.11,0,0,1,2.51,1.78,9.29,9.29,0,0,1,.54,3.86,10.14,10.14,0,0,1-.37,3.19c-.44,1-1.5,2.27-2.73,2.27-2.45,0-2.58-3.85-2.58-5.59s.08-5.51,2.63-5.51Zm8.65,11.71v-.83h-2v-16.68h-5.73v.82h2v5.91a4.58,4.58,0,0,0-3.8-1.93,5.22,5.22,0,0,0-2.38.61,6.59,6.59,0,0,0-3.29,6.08c0,3.51,2.17,6.39,5.81,6.39,1.87,0,2.68-.78,3.66-2.23v1.86Z" transform="translate(-1823 -984)"/><path class="cls-3" d="M1938.88,1088.54h-4.5c0-2-.27-4.2,2.4-4.2,1.66,0,2.1,1,2.1,2.47v1.73Zm3.91.85a6.55,6.55,0,0,0-1.59-3.91,6,6,0,0,0-4.42-1.82,6.32,6.32,0,0,0-6.55,6.5,6.45,6.45,0,0,0,6.79,6.59c2.79,0,4.4-1.41,5.63-3.76l-.74-.36c-1.07,1.73-2.3,3.2-4.53,3.2-2.88,0-3.08-2.69-3.08-4.89v-1.55Z" transform="translate(-1823 -984)"/><path class="cls-3" d="M1952.54,1096.41v-.83h1.66V1088c0-1.37,0-3.06-1.81-3.06a3.65,3.65,0,0,0-3.1,2.69,7.94,7.94,0,0,0-.13,1.88v6h1.91v.83h-7.62v-.83h2v-10.72h-2V1084h5.71v1.91a5.34,5.34,0,0,1,2.38-1.83,5.84,5.84,0,0,1,2.24-.47,6.76,6.76,0,0,1,1.69.24c2,.59,2.52,1.91,2.52,3.82v7.91h2v.83Z" transform="translate(-1823 -984)"/><polygon class="cls-3" points="141.07 112.41 141.07 111.56 143.12 111.56 143.12 96.02 141.07 96.02 141.07 95.16 149.07 95.16 149.07 96.02 147.01 96.02 147.01 111.56 149.07 111.56 149.07 112.41 141.07 112.41 141.07 112.41"/><path class="cls-3" d="M1982,1096.41v-.83h1.66V1088c0-1.37,0-3.06-1.81-3.06a3.66,3.66,0,0,0-3.11,2.69,8.49,8.49,0,0,0-.12,1.88v6h1.91v.83h-7.62v-.83h2v-10.72h-2V1084h5.71v1.91a5.26,5.26,0,0,1,2.37-1.83,5.85,5.85,0,0,1,2.25-.47,6.89,6.89,0,0,1,1.69.24c2,.59,2.52,1.91,2.52,3.82v7.91h2v.83Z" transform="translate(-1823 -984)"/><path class="cls-3" d="M1999.12,1096.41v-.83h1.67V1088c0-1.37,0-3.06-1.81-3.06a3.66,3.66,0,0,0-3.11,2.69,8.49,8.49,0,0,0-.12,1.88v6h1.91v.83H1990v-.83h2v-10.72h-2V1084h5.71v1.91a5.26,5.26,0,0,1,2.37-1.83,5.85,5.85,0,0,1,2.25-.47,6.89,6.89,0,0,1,1.69.24c2,.59,2.52,1.91,2.52,3.82v7.91h2v.83Z" transform="translate(-1823 -984)"/><path class="cls-3" d="M2007.87,1087.71a1.73,1.73,0,1,1,1.73-1.73,1.67,1.67,0,0,1-1.73,1.73Zm0,.33a2.06,2.06,0,1,0-2.06-2.06,2.05,2.05,0,0,0,2.06,2.06Zm-.47-1.94h.5l.67,1h.34l-.7-1c.41,0,.72-.21.72-.66s-.2-.65-.82-.65h-1v2.35h.3v-1Zm0-.28v-.76h.64c.29,0,.57,0,.57.37s-.47.39-.79.39Z" transform="translate(-1823 -984)"/><path class="cls-1" d="M1841.22,1070.14a.79.79,0,1,1-.8-.77.78.78,0,0,1,.8.77Z" transform="translate(-1823 -984)"/><path class="cls-1" d="M1847.13,1068.47c-2.3-2.07-3.92-2.12-7.4-2.31,0,0-1.72-.21-3-.45-.26,0-.63-.08-.7,0s-.08.44,0,.7c.23,1.29.43,3,.43,3,.18,3.48.23,5.1,2.29,7.4,0,0,5.64,6,10,1.66,0,0,.32-.37.22-.67-.16-.49-3.08-3.31-4.2-4.46a13.3,13.3,0,0,0-2.78-2.29.34.34,0,0,0-.18,0,.82.82,0,0,0-.41.35.33.33,0,0,0,0,.29,12.63,12.63,0,0,0,2.3,2.74c1.5,1.51,3.55,3.34,3.55,3.34-2.57,2-6.45-1.2-6.45-1.2-2.51-2.1-3.27-6.2-3.08-9.16,3-.18,7.08.58,9.17,3.1,0,0,2.1,2.77,1.67,5.17a.24.24,0,0,0,0,.18,1,1,0,0,0,1.57.13,1.16,1.16,0,0,0,.09-.14c.8-3.73-3.11-7.41-3.11-7.41Z" transform="translate(-1823 -984)"/><path class="cls-1" d="M1861,1070.92a.79.79,0,1,1,.76-.81.78.78,0,0,1-.76.81Z" transform="translate(-1823 -984)"/><path class="cls-1" d="M1862.7,1076.82c2.07-2.29,2.12-3.91,2.31-7.39,0,0,.22-1.72.45-3,0-.25.08-.62,0-.7s-.44-.08-.69,0c-1.3.23-3,.44-3,.44-3.48.17-5.1.22-7.4,2.28,0,0-6,5.64-1.65,10,0,0,.36.32.66.22.5-.16,3.31-3.08,4.46-4.2a13.3,13.3,0,0,0,2.29-2.78.26.26,0,0,0,0-.18.82.82,0,0,0-.35-.41.3.3,0,0,0-.29,0,12.63,12.63,0,0,0-2.74,2.3c-1.5,1.5-3.34,3.55-3.34,3.55-2-2.56,1.2-6.45,1.2-6.45,2.1-2.51,6.2-3.27,9.16-3.08.18,3-.58,7.08-3.1,9.17,0,0-2.77,2.1-5.17,1.67a.24.24,0,0,0-.18,0,1,1,0,0,0-.13,1.57l.14.09c3.73.8,7.41-3.12,7.41-3.12Z" transform="translate(-1823 -984)"/><path class="cls-1" d="M1860.25,1090.74a.79.79,0,1,1,.81.76.78.78,0,0,1-.81-.76Z" transform="translate(-1823 -984)"/><path class="cls-1" d="M1854.35,1092.41c2.29,2.06,3.91,2.11,7.39,2.3,0,0,1.72.22,3,.45.25,0,.63.08.7,0s.08-.44,0-.69c-.23-1.3-.43-3-.43-3-.18-3.48-.23-5.1-2.28-7.4,0,0-5.65-6-10-1.65,0,0-.32.36-.22.66.16.5,3.08,3.31,4.2,4.46a13.3,13.3,0,0,0,2.78,2.29.34.34,0,0,0,.18,0,.82.82,0,0,0,.41-.35.3.3,0,0,0,0-.29,12.63,12.63,0,0,0-2.3-2.74c-1.5-1.5-3.55-3.34-3.55-3.34,2.57-2,6.45,1.2,6.45,1.2,2.52,2.1,3.27,6.2,3.08,9.16-3,.18-7.08-.58-9.17-3.1,0,0-2.1-2.77-1.67-5.17a.31.31,0,0,0,0-.18,1,1,0,0,0-1.58-.13c0,.05,0,.06-.09.14-.79,3.73,3.12,7.42,3.12,7.42Z" transform="translate(-1823 -984)"/><path class="cls-1" d="M1840.44,1090a.79.79,0,1,1-.77.81.78.78,0,0,1,.77-.81Z" transform="translate(-1823 -984)"/><path class="cls-1" d="M1838.77,1084.05c-2.07,2.29-2.12,3.91-2.31,7.39,0,0-.22,1.72-.45,3,0,.25-.08.62,0,.69s.44.08.7,0c1.29-.23,3-.43,3-.43,3.48-.18,5.1-.23,7.4-2.28,0,0,6-5.64,1.66-10,0,0-.37-.32-.67-.22a51.36,51.36,0,0,0-4.46,4.2,13.3,13.3,0,0,0-2.29,2.78.35.35,0,0,0,0,.18.82.82,0,0,0,.35.41.3.3,0,0,0,.29,0,12.63,12.63,0,0,0,2.74-2.3c1.51-1.5,3.34-3.55,3.34-3.55,2,2.57-1.2,6.45-1.2,6.45-2.09,2.52-6.2,3.27-9.16,3.08-.18-3,.58-7.08,3.1-9.17,0,0,2.77-2.1,5.17-1.67a.31.31,0,0,0,.18,0,1,1,0,0,0,.13-1.58,1.37,1.37,0,0,0-.14-.08c-3.73-.8-7.41,3.11-7.41,3.11Z" transform="translate(-1823 -984)"/></svg>