<?xml version="1.0" encoding="utf-8"?>
<!-- Generator: Adobe Illustrator 19.0.0, SVG Export Plug-In . SVG Version: 6.00 Build 0)  -->
<svg version="1.1" id="Layer_1" xmlns="http://www.w3.org/2000/svg" xmlns:xlink="http://www.w3.org/1999/xlink" x="0px" y="0px"
	 viewBox="0 0 500 500" style="enable-background:new 0 0 500 500;" xml:space="preserve">
<style type="text/css">
	.st0{fill:#A11D2B;}
</style>
<g id="XMLID_1_">
	<polygon id="XMLID_3_" points="138.6,358.9 144.3,358.9 153.8,374.7 163.3,358.9 169,358.9 170.5,392.5 164.6,392.5 163.5,369.2 
		155.2,382.9 152.3,382.9 143.8,369.5 142.8,392.5 137.1,392.5 	"/>
	<path id="XMLID_6_" d="M202,378.7l-4.2-13l-4.3,13H202z M194.8,358.9h6.2l12.1,33.6h-6.8l-2.8-8.5h-11.9l-2.8,8.5h-6.3L194.8,358.9
		z"/>
	<path id="XMLID_9_" d="M238,374c1.5,0,2.7-0.5,3.6-1.4c0.8-0.9,1.3-2.1,1.3-3.5c0-1.4-0.5-2.6-1.3-3.6c-0.9-0.9-2.1-1.3-3.5-1.3
		h-6.4v9.8H238z M225.8,358.9h12.1c2,0,3.8,0.3,5.2,0.9c1.4,0.7,2.5,1.4,3.4,2.4c0.8,1,1.5,2.1,1.9,3.3c0.4,1.2,0.6,2.3,0.6,3.4
		c0,2.1-0.5,4-1.3,5.6c-0.8,1.6-2.3,2.9-4,3.9l7.4,14.1h-6.9l-6.5-13.2h-6.1v13.2h-5.8L225.8,358.9L225.8,358.9z"/>
	<path id="XMLID_12_" d="M276.8,374c1.5,0,2.7-0.5,3.6-1.4c0.8-0.9,1.3-2.1,1.3-3.5c0-1.4-0.5-2.6-1.3-3.6c-0.9-0.9-2.1-1.3-3.5-1.3
		h-6.4v9.8H276.8z M264.7,358.9h12.1c2,0,3.8,0.3,5.2,0.9c1.4,0.7,2.5,1.4,3.4,2.4s1.5,2.1,1.9,3.3c0.4,1.2,0.6,2.3,0.6,3.4
		c0,2.1-0.5,4-1.3,5.6c-0.8,1.6-2.3,2.9-4,3.9l7.4,14.1H283l-6.5-13.2h-6v13.2h-5.8L264.7,358.9L264.7,358.9z"/>
	<rect id="XMLID_13_" x="305" y="358.9" width="6" height="33.6"/>
	<path id="XMLID_16_" d="M342.2,387.4c1.6,0,3-0.3,4.3-0.9c1.3-0.7,2.3-1.5,3.3-2.6c0.9-1.1,1.6-2.3,2.1-3.8
		c0.5-1.4,0.8-2.9,0.8-4.5c0-1.6-0.3-3.1-0.8-4.6c-0.5-1.4-1.1-2.7-2.1-3.8c-0.9-1.1-2-2-3.3-2.5c-1.3-0.7-2.7-0.9-4.3-0.9
		c-1.6,0-3,0.3-4.3,0.9c-1.2,0.7-2.3,1.5-3.2,2.5c-0.9,1-1.6,2.3-2.1,3.8c-0.5,1.4-0.8,2.9-0.8,4.6c0,1.6,0.3,3.1,0.8,4.5
		c0.5,1.4,1.1,2.7,2.1,3.8c0.9,1.1,2,2,3.2,2.6C339.2,387,340.6,387.4,342.2,387.4 M342.2,393.3c-2.3,0-4.5-0.5-6.6-1.4
		c-2-0.9-3.8-2.2-5.3-3.8c-1.5-1.6-2.7-3.5-3.6-5.6s-1.3-4.4-1.3-6.9c0-2.4,0.5-4.8,1.3-6.9c0.8-2.2,2.1-4,3.6-5.6
		c1.5-1.6,3.2-2.8,5.3-3.8c2.1-0.9,4.2-1.4,6.6-1.4c2.3,0,4.5,0.5,6.6,1.4c2,0.9,3.8,2.2,5.3,3.8c1.5,1.6,2.7,3.5,3.6,5.6
		c0.8,2.2,1.3,4.4,1.3,6.9c0,2.4-0.5,4.8-1.3,6.9c-0.8,2.2-2.1,4-3.6,5.6c-1.5,1.6-3.3,2.9-5.3,3.8
		C346.7,392.8,344.6,393.3,342.2,393.3"/>
	<polygon id="XMLID_17_" points="377.6,364.4 366.8,364.4 366.8,358.9 394.5,358.9 394.5,364.4 383.7,364.4 383.7,392.5 
		377.6,392.5 	"/>
	<polygon id="XMLID_18_" points="415.6,364.4 404.7,364.4 404.7,358.9 432.5,358.9 432.5,364.4 421.6,364.4 421.6,392.5 
		415.6,392.5 	"/>
	<path id="XMLID_19_" class="st0" d="M300.6,325.3h54l-90.3-215.1l-45.3,22l31.5,74.9l-14.6,34.8l-56.5-135.2l-45.8,20.9l36.8,86.3
		l-0.2,0.4c-22.7,54.5-50.5,69.5-53.2,70.5c-6.5,2.6-13.4,4.1-20.7,4.1c-2.3,0-4.4-0.1-6.6-0.4l-22.1,47.5
		c7.3,4.2,15.6,6.7,24.3,6.7c11.1,0,21.2-3.8,29.7-10.2l-0.1,0.2c0,0,20.9-10.6,43.4-68.7c0-0.1,8.3-18.6,12.7-30.4l0.5-1.3
		l39.4,93.1h53.9l-27.8-65.5l14.7-34.8L300.6,325.3z"/>
</g>
</svg>
