<svg id="FA_Logo1V" data-name="FA Logo1V" xmlns="http://www.w3.org/2000/svg" xmlns:xlink="http://www.w3.org/1999/xlink" viewBox="0 0 437.32 102.1"><defs><style>.cls-1{fill:#fff;}.cls-2{fill:#3578bc;}.cls-3{fill:url(#linear-gradient);}.cls-4{fill:url(#linear-gradient-2);}.cls-5{fill:url(#linear-gradient-3);}.cls-6{fill:url(#linear-gradient-4);}.cls-7{fill:url(#linear-gradient-5);}</style><linearGradient id="linear-gradient" x1="192.59" y1="335.05" x2="264.78" y2="262.85" gradientUnits="userSpaceOnUse"><stop offset="0" stop-color="#007cb3"/><stop offset="0.48" stop-color="#00c0e8"/><stop offset="0.94" stop-color="#4cbfac"/></linearGradient><linearGradient id="linear-gradient-2" x1="185.57" y1="328.03" x2="257.76" y2="255.84" xlink:href="#linear-gradient"/><linearGradient id="linear-gradient-3" x1="203.12" y1="345.57" x2="275.31" y2="273.38" xlink:href="#linear-gradient"/><linearGradient id="linear-gradient-4" x1="181.66" y1="324.12" x2="253.85" y2="251.92" xlink:href="#linear-gradient"/><linearGradient id="linear-gradient-5" x1="207.05" y1="349.5" x2="279.24" y2="277.31" xlink:href="#linear-gradient"/></defs><path d="M308.77,289.55v11.7h21.06v5.19H308.77v23.32h-6.43V288.31c0-5.78,3.8-9.07,9.72-9.07,7,0,14.41,0,20.91.51l-.36,5H313.67C310.24,284.72,308.77,286.19,308.77,289.55Z" transform="translate(-184.22 -254.46)"/><path d="M342.7,320c0,3.14,1.75,4.75,4.9,4.75H351l.73,4.75c-1.39.66-4.75,1-6.5,1-5.27,0-8.7-3.21-8.7-9.06V278.58h6.21Z" transform="translate(-184.22 -254.46)"/><path d="M386,312c0,13.67-4.46,18.72-16.74,18.72s-16.74-5-16.74-18.72,4.53-18.71,16.74-18.71S386,298.39,386,312Zm-27,0c0,10.38,2.49,13.45,10.24,13.45s10.3-3.07,10.3-13.45-2.55-13.45-10.3-13.45S359,301.61,359,312Z" transform="translate(-184.22 -254.46)"/><path d="M433.5,328a2.37,2.37,0,0,1-2.41,1.76h-5.63a2.44,2.44,0,0,1-2.42-2l-5.84-24.2c-.44-1.82-.73-3.65-1.17-5.62h-.88c-.44,2-.88,3.8-1.24,5.62l-5.78,24.2a2.51,2.51,0,0,1-2.48,2h-5.56a2.37,2.37,0,0,1-2.41-1.76L387.3,294.15h6.43l7.38,26.25a45.94,45.94,0,0,1,1.17,5.34h1l1.32-5.34,5.92-24.27a2.31,2.31,0,0,1,2.34-2h5.63a2.41,2.41,0,0,1,2.34,2.05l5.85,24.2c.36,1.75.87,3.51,1.24,5.34h.95c.44-1.83.66-3.51,1.24-5.34l7.39-26.25h6.43Z" transform="translate(-184.22 -254.46)"/><path d="M472.4,314H451.63l-5,15.79H440l16.23-48.69a2.37,2.37,0,0,1,2.41-1.76h6.73a2.37,2.37,0,0,1,2.41,1.76L484,329.76h-6.65Zm-1.76-5.56-6.36-20c-.44-1.32-.88-2.78-1.24-4.1H461c-.37,1.32-.8,2.78-1.24,4.1l-6.36,20Z" transform="translate(-184.22 -254.46)"/><path d="M513.12,295l-.81,4c-3.21-.29-7.16-.44-9.65-.44-8.48,0-11.4,3-11.4,13.38s2.92,13.45,11.4,13.45a76.85,76.85,0,0,0,10.46-.73l.66,4.17a39,39,0,0,1-12.21,1.82c-12.28,0-16.89-5-16.89-18.71s4.61-18.64,17-18.64A36,36,0,0,1,513.12,295Z" transform="translate(-184.22 -254.46)"/><path d="M529.06,299.05V320c0,3.44,1.31,4.75,4.82,4.75h5.41l.73,4.75a37.17,37.17,0,0,1-8,1c-6,0-9.14-3.43-9.14-9.65V299.05h-6.43v-4.53l6.43-.37V283.63h6.22v10.52h11.33v4.9Z" transform="translate(-184.22 -254.46)"/><path d="M550.7,280.92v4.17c0,1.31-.59,1.9-1.9,1.9h-2.93a1.67,1.67,0,0,1-1.9-1.9v-4.17a1.73,1.73,0,0,1,1.9-1.9h2.93A1.7,1.7,0,0,1,550.7,280.92Zm-.29,48.84h-6.14V294.15h6.14Z" transform="translate(-184.22 -254.46)"/><path d="M576.72,328.22a2.27,2.27,0,0,1-2.19,1.54H568.9a2.29,2.29,0,0,1-2.19-1.54l-13-34.07h6.65l8.77,24.93c.73,2.05,1.46,4.24,2.12,6.22h1l2.2-6.22,8.77-24.93h6.58Z" transform="translate(-184.22 -254.46)"/><path d="M620.08,324.49l.66,4.17c-3.37,1.39-9.73,2-13.82,2-12.28,0-17-5.11-17-18.78,0-14,4.9-18.57,16.37-18.57,10.75,0,15.28,3.94,15.28,11.62.07,6.36-2.56,10.09-8.48,10.09H596.54c.58,8.48,3.87,10.38,11.18,10.38A98.64,98.64,0,0,0,620.08,324.49Zm-23.69-14.33h15.06c3.22,0,3.88-2.63,3.88-5.26-.08-4.53-2.41-6.36-8.78-6.36C599.17,298.54,596.61,301.17,596.39,310.16Z" transform="translate(-184.22 -254.46)"/><circle class="cls-1" cx="51.03" cy="51.03" r="51.03"/><path class="cls-2" d="M281.71,284.37c-5,4.35-10,10-15,15.78-3.11,3.55-6.33,7.22-9.71,10.75l.93.72c7.57,5.82,14.83,11.4,24,14.57a51,51,0,0,0-.21-41.82Z" transform="translate(-184.22 -254.46)"/><path class="cls-3" d="M224.94,306.13c-12.47,6.82-26.11,7.22-40.69,1.22,0,.93.08,1.85.17,2.77,13.63,14.17,27.24,20.15,40.59,17.76,10.5-1.87,19.31-8.52,27.43-16.64A95.61,95.61,0,0,0,234,299.77,50.35,50.35,0,0,1,224.94,306.13Z" transform="translate(-184.22 -254.46)"/><path class="cls-4" d="M222.12,292.69a66,66,0,0,1,11.28,3.54c1.87-1.75,3.55-3.5,5.13-5.17s3.33-3.5,5-5c9.43-8.39,21.33-10.57,35.59-6.58a51,51,0,0,0-93.65,14.61C198.32,290.64,210.6,290.17,222.12,292.69Z" transform="translate(-184.22 -254.46)"/><path class="cls-5" d="M264.4,298.16a177,177,0,0,1,14.76-15.58c-13.59-4-24.82-2.09-33.6,5.72-1.61,1.42-3.18,3.08-4.85,4.84-1.35,1.43-2.77,2.92-4.32,4.42a101.56,101.56,0,0,1,18.17,11.51C257.92,305.56,261.18,301.85,264.4,298.16Z" transform="translate(-184.22 -254.46)"/><path class="cls-6" d="M223.5,303.49a46.79,46.79,0,0,0,7.35-5,63.49,63.49,0,0,0-9.37-2.83c-11.48-2.51-23.76-1.91-36.63,1.76a50.56,50.56,0,0,0-.61,6.67C198.4,310.19,211.57,310,223.5,303.49Z" transform="translate(-184.22 -254.46)"/><path class="cls-7" d="M254.83,313.07c-8.47,8.49-18,15.76-29.29,17.78a36.25,36.25,0,0,1-6.3.56c-11.37,0-22.79-5.48-34.14-16.35a51,51,0,0,0,95.5,13.87c-9.44-3.32-16.84-9-24.55-14.92Z" transform="translate(-184.22 -254.46)"/></svg>