<svg id="Layer_1" data-name="Layer 1" xmlns="http://www.w3.org/2000/svg" viewBox="0 0 437.3 102.07"><defs><style>.cls-1{fill:#fefefe;}</style></defs><g id="Layer_1-2" data-name="Layer_1"><path class="cls-1" d="M124.6,35V46.64h21v5.19h-21V75.15h-6.41V33.69c0-5.76,3.82-9.07,9.72-9.07,7,0,14.4,0,20.87.5l-.36,5H129.49c-3.45,0-4.89,1.44-4.89,4.82Z" transform="translate(0 0.07)"/><path class="cls-1" d="M158.5,65.36c0,3.17,1.73,4.75,4.9,4.75h3.45l.72,4.75c-1.37.65-4.75.94-6.48.94-5.25,0-8.71-3.24-8.71-9.07V24h6.19Z" transform="translate(0 0.07)"/><path class="cls-1" d="M174.77,57.44c0,10.37,2.52,13.46,10.22,13.46s10.3-3.09,10.3-13.46S192.69,44,185,44,174.77,47.08,174.77,57.44Zm27,0c0,13.68-4.46,18.72-16.77,18.72s-16.77-5-16.77-18.72S172.75,38.73,185,38.73,201.76,43.84,201.76,57.44Z" transform="translate(0 0.07)"/><path class="cls-1" d="M249.27,73.42a2.37,2.37,0,0,1-2.44,1.73h-5.62a2.54,2.54,0,0,1-2.45-1.94L232.93,49c-.43-1.8-.72-3.67-1.15-5.61h-.86c-.44,1.94-.87,3.81-1.23,5.61l-5.76,24.19a2.48,2.48,0,0,1-2.51,1.94h-5.55a2.47,2.47,0,0,1-2.44-1.73L203.06,39.59h6.41l7.41,26.27A48.32,48.32,0,0,1,218,71.19H219l1.29-5.33,5.91-24.25a2.28,2.28,0,0,1,2.37-2h5.62a2.37,2.37,0,0,1,2.3,2l5.83,24.18c.36,1.73.86,3.53,1.22,5.33h.94c.43-1.8.65-3.53,1.22-5.33l7.42-26.27h6.4L249.13,73.42Z" transform="translate(0 0.07)"/><path class="cls-1" d="M286.42,53.84l-6.34-20c-.43-1.29-.86-2.81-1.22-4.1h-2c-.36,1.29-.79,2.81-1.22,4.1l-6.34,20h17.14Zm1.72,5.55H267.41l-5,15.76h-6.63L272,26.49a2.37,2.37,0,0,1,2.45-1.73h6.69a2.49,2.49,0,0,1,2.45,1.73L299.8,75.15h-6.62l-5-15.76Z" transform="translate(0 0.07)"/><path class="cls-1" d="M328.89,40.38l-.8,4c-3.24-.28-7.19-.43-9.64-.43-8.5,0-11.38,3-11.38,13.39s3,13.46,11.38,13.46a76.83,76.83,0,0,0,10.44-.72l.64,4.18a39.71,39.71,0,0,1-12.23,1.8c-12.31,0-16.92-5-16.92-18.72s4.61-18.64,17-18.64a36.21,36.21,0,0,1,11.44,1.65Z" transform="translate(0 0.07)"/><path class="cls-1" d="M344.79,44.49V65.36c0,3.46,1.3,4.75,4.83,4.75H355l.71,4.75a37.35,37.35,0,0,1-8.06.94c-6,0-9.14-3.46-9.14-9.65V44.41h-6.41V39.88l6.41-.36V29h6.19V39.52H356v4.89h-11.3Z" transform="translate(0 0.07)"/><path class="cls-1" d="M366.17,75.15h-6.12V39.59h6.12Zm.29-48.8v4.17c0,1.3-.58,1.87-1.87,1.87h-2.95a1.64,1.64,0,0,1-1.87-1.87V26.35a1.7,1.7,0,0,1,1.87-1.88h2.95A1.68,1.68,0,0,1,366.46,26.35Z" transform="translate(0 0.07)"/><path class="cls-1" d="M392.45,73.64a2.26,2.26,0,0,1-2.16,1.51h-5.62a2.25,2.25,0,0,1-2.16-1.51l-13-34h6.63l8.78,24.91c.72,2,1.44,4.24,2.09,6.19h.93l2.16-6.19,8.78-24.91h6.55l-13,34.05Z" transform="translate(0 0.07)"/><path class="cls-1" d="M423.47,70.76c-7.34,0-10.58-1.87-11.16-10.37H428.8c5.68,0,8.35-3.45,8.49-9.35h-.07V49.88c-.14-7.41-4.75-11.23-15.26-11.23-11.45,0-16.34,4.61-16.34,18.58,0,13.67,4.75,18.78,17.06,18.78,4.1,0,10.44-.57,13.82-1.94l-.65-4.17A100.91,100.91,0,0,1,423.47,70.76ZM422.25,44c6.33,0,8.71,1.8,8.78,6.34,0,2.59-.65,5.25-3.89,5.25h-15C412.31,46.64,414.83,44,422.25,44Z" transform="translate(0 0.07)"/><path class="cls-1" d="M97.53,29.8c-5,4.32-10,10-15,15.77-3.1,3.52-6.34,7.19-9.72,10.72l.94.72c7.55,5.83,14.83,11.37,24,14.54a50.84,50.84,0,0,0-.22-41.82Z" transform="translate(0 0.07)"/><path class="cls-1" d="M40.74,51.54C28.29,58.38,14.61,58.74.07,52.76c0,.94.07,1.87.14,2.81,13.61,14.18,27.21,20.16,40.6,17.78,10.51-1.87,19.29-8.49,27.43-16.63A90.88,90.88,0,0,0,49.81,45.28a47.69,47.69,0,0,1-9.07,6.33Z" transform="translate(0 0.07)"/><path class="cls-1" d="M37.93,38.15a62.59,62.59,0,0,1,11.3,3.53c1.87-1.73,3.53-3.53,5.11-5.18s3.31-3.53,5-5q14.15-12.64,35.56-6.55A51.06,51.06,0,0,0,1.29,39.52C14.1,36.06,26.41,35.63,37.93,38.15Z" transform="translate(0 0.07)"/><path class="cls-1" d="M80.19,43.62A169.76,169.76,0,0,1,94.94,28.07q-20.4-5.94-33.61,5.69c-1.59,1.44-3.17,3.1-4.83,4.82-1.36,1.44-2.8,3-4.32,4.39A101.53,101.53,0,0,1,70.32,54.49C73.71,51,77,47.29,80.19,43.62Z" transform="translate(0 0.07)"/><path class="cls-1" d="M39.3,49a43.61,43.61,0,0,0,7.34-5,59.52,59.52,0,0,0-9.36-2.81C25.84,38.58,13.53,39.23.64,42.83A49.9,49.9,0,0,0,0,49.52c14.18,6.12,27.35,6,39.23-.57Z" transform="translate(0 0.07)"/><path class="cls-1" d="M70.68,58.52c-8.49,8.5-18,15.77-29.29,17.78a36.94,36.94,0,0,1-6.27.58C23.75,76.88,12.31,71.41,1,60.54A50.94,50.94,0,0,0,51,102h.22a50.88,50.88,0,0,0,45.2-27.64c-9.43-3.31-16.84-9-24.54-14.9C71.48,59.17,71.12,58.81,70.68,58.52Z" transform="translate(0 0.07)"/></g></svg>