<?xml version="1.0" encoding="UTF-8" standalone="no"?>
<svg
   xmlns:dc="http://purl.org/dc/elements/1.1/"
   xmlns:cc="http://creativecommons.org/ns#"
   xmlns:rdf="http://www.w3.org/1999/02/22-rdf-syntax-ns#"
   xmlns:svg="http://www.w3.org/2000/svg"
   xmlns="http://www.w3.org/2000/svg"
   viewBox="0 0 583.09332 136.13333"
   height="136.13333"
   width="583.09332"
   xml:space="preserve"
   id="svg2"
   version="1.1"><metadata
     id="metadata8"><rdf:RDF><cc:Work
         rdf:about=""><dc:format>image/svg+xml</dc:format><dc:type
           rdf:resource="http://purl.org/dc/dcmitype/StillImage" /></cc:Work></rdf:RDF></metadata><defs
     id="defs6"><clipPath
       id="clipPath44"
       clipPathUnits="userSpaceOnUse"><path
         id="path42"
         d="M 407.207,504.316 C 282.527,436.129 146.078,432.16 0.242188,492.16 0.570313,482.848 1.12891,473.598 1.94922,464.418 138.254,322.672 274.391,262.965 407.859,286.762 c 105.051,18.742 193.098,85.226 274.278,166.437 -55.735,42.156 -114.414,83.235 -184.453,114.727 -25.403,-22.238 -54.715,-44.051 -90.477,-63.61 z" /></clipPath><linearGradient
       id="linearGradient54"
       spreadMethod="pad"
       gradientTransform="matrix(721.93,721.93,721.93,-721.93,83.6596,215.15)"
       gradientUnits="userSpaceOnUse"
       y2="0"
       x2="1"
       y1="0"
       x1="0"><stop
         id="stop46"
         offset="0"
         style="stop-opacity:1;stop-color:#347aba" /><stop
         id="stop48"
         offset="0.477427"
         style="stop-opacity:1;stop-color:#51c7eb" /><stop
         id="stop50"
         offset="0.935537"
         style="stop-opacity:1;stop-color:#59c6a7" /><stop
         id="stop52"
         offset="1"
         style="stop-opacity:1;stop-color:#59c6a7" /></linearGradient><clipPath
       id="clipPath64"
       clipPathUnits="userSpaceOnUse"><path
         id="path62"
         d="m 378.973,638.734 c 41.011,-8.972 78.254,-21.101 112.789,-35.41 18.742,17.446 35.508,34.992 51.301,51.637 17.109,18.035 33.281,35.07 50.273,50.184 94.383,83.886 213.34,105.699 355.949,65.773 -88.98,149.684 -252.25,250.042 -439.027,250.042 -242.598,0 -445.5236,-169.284 -497.4611,-396.136 128.2151,34.371 250.9411,39.125 366.1761,13.91 z" /></clipPath><linearGradient
       id="linearGradient74"
       spreadMethod="pad"
       gradientTransform="matrix(721.93,721.93,721.93,-721.93,13.4919,285.317)"
       gradientUnits="userSpaceOnUse"
       y2="0"
       x2="1"
       y1="0"
       x1="0"><stop
         id="stop66"
         offset="0"
         style="stop-opacity:1;stop-color:#347aba" /><stop
         id="stop68"
         offset="0.477427"
         style="stop-opacity:1;stop-color:#51c7eb" /><stop
         id="stop70"
         offset="0.935537"
         style="stop-opacity:1;stop-color:#59c6a7" /><stop
         id="stop72"
         offset="1"
         style="stop-opacity:1;stop-color:#59c6a7" /></linearGradient><clipPath
       id="clipPath84"
       clipPathUnits="userSpaceOnUse"><path
         id="path82"
         d="m 801.781,583.965 c 49.508,56.531 97.891,111.758 147.649,155.808 -135.907,39.911 -248.211,20.957 -336.075,-57.148 -16.046,-14.258 -31.777,-30.844 -48.437,-48.402 -13.539,-14.274 -27.723,-29.184 -43.246,-44.176 68.703,-32.41 126.586,-73.34 181.695,-115.149 33.61,35.082 66.168,72.247 98.414,109.067 z" /></clipPath><linearGradient
       id="linearGradient94"
       spreadMethod="pad"
       gradientTransform="matrix(721.93,721.93,721.93,-721.93,188.943,109.866)"
       gradientUnits="userSpaceOnUse"
       y2="0"
       x2="1"
       y1="0"
       x1="0"><stop
         id="stop86"
         offset="0"
         style="stop-opacity:1;stop-color:#347aba" /><stop
         id="stop88"
         offset="0.477427"
         style="stop-opacity:1;stop-color:#51c7eb" /><stop
         id="stop90"
         offset="0.935537"
         style="stop-opacity:1;stop-color:#59c6a7" /><stop
         id="stop92"
         offset="1"
         style="stop-opacity:1;stop-color:#59c6a7" /></linearGradient><clipPath
       id="clipPath104"
       clipPathUnits="userSpaceOnUse"><path
         id="path102"
         d="m 392.754,530.75 c 28.223,15.438 52.172,32.559 73.519,50.215 -29.125,11.297 -60.121,20.984 -93.734,28.336 C 257.828,634.414 135.016,628.359 6.27734,591.699 2.79688,569.906 0.78125,547.641 0.144531,525.023 141.762,463.715 273.438,465.492 392.754,530.75 Z" /></clipPath><linearGradient
       id="linearGradient114"
       spreadMethod="pad"
       gradientTransform="matrix(721.93,721.93,721.93,-721.93,-25.622,324.431)"
       gradientUnits="userSpaceOnUse"
       y2="0"
       x2="1"
       y1="0"
       x1="0"><stop
         id="stop106"
         offset="0"
         style="stop-opacity:1;stop-color:#347aba" /><stop
         id="stop108"
         offset="0.477427"
         style="stop-opacity:1;stop-color:#51c7eb" /><stop
         id="stop110"
         offset="0.935537"
         style="stop-opacity:1;stop-color:#59c6a7" /><stop
         id="stop112"
         offset="1"
         style="stop-opacity:1;stop-color:#59c6a7" /></linearGradient><clipPath
       id="clipPath124"
       clipPathUnits="userSpaceOnUse"><path
         id="path122"
         d="M 0,0 H 4373 V 1021 H 0 Z" /></clipPath><clipPath
       id="clipPath130"
       clipPathUnits="userSpaceOnUse"><path
         id="path128"
         d="M 706.121,434.898 C 621.43,350.043 526.27,277.289 413.152,257.105 392.203,253.375 371.199,251.5 350.211,251.5 236.492,251.488 122.266,306.281 8.82422,415.016 53.543,178.734 260.973,-0.0117188 510.258,-0.0117188 c 197.492,0 368.664,112.2347188 453.555,276.3167188 -94.438,33.183 -168.43,89.949 -245.489,149.218 -4.051,3.125 -8.129,6.25 -12.203,9.375 z" /></clipPath><linearGradient
       id="linearGradient140"
       spreadMethod="pad"
       gradientTransform="matrix(721.93,721.93,721.93,-721.93,228.295,70.617)"
       gradientUnits="userSpaceOnUse"
       y2="0"
       x2="1"
       y1="0"
       x1="0"><stop
         id="stop132"
         offset="0"
         style="stop-opacity:1;stop-color:#347aba" /><stop
         id="stop134"
         offset="0.477427"
         style="stop-opacity:1;stop-color:#51c7eb" /><stop
         id="stop136"
         offset="0.935537"
         style="stop-opacity:1;stop-color:#59c6a7" /><stop
         id="stop138"
         offset="1"
         style="stop-opacity:1;stop-color:#59c6a7" /></linearGradient></defs><g
     transform="matrix(1.3333333,0,0,-1.3333333,0,136.13333)"
     id="g10"><g
       transform="scale(0.1)"
       id="g12"><path
         id="path14"
         style="fill:#100f0d;fill-opacity:1;fill-rule:nonzero;stroke:none"
         d="M 1245.53,670.125 V 553.156 h 210.54 V 501.254 H 1245.53 V 268.051 h -64.33 v 414.508 c 0,57.75 38.01,90.648 97.23,90.648 70.18,0 144.02,0 209.08,-5.117 l -3.65,-49.711 h -189.35 c -34.35,0 -48.98,-14.625 -48.98,-48.254" /><path
         id="path16"
         style="fill:#100f0d;fill-opacity:1;fill-rule:nonzero;stroke:none"
         d="m 1584.76,366.012 c 0,-31.438 17.54,-47.52 48.98,-47.52 h 34.36 l 7.31,-47.519 c -13.89,-6.582 -47.51,-9.504 -65.06,-9.504 -52.64,0 -87,32.168 -87,90.656 v 427.66 h 62.14 l -0.73,-413.773" /><path
         id="path18"
         style="fill:#100f0d;fill-opacity:1;fill-rule:nonzero;stroke:none"
         d="m 1747.8,445.699 c 0,-103.808 24.86,-134.523 102.35,-134.523 77.49,0 103.07,30.715 103.07,134.523 0,103.809 -25.58,134.512 -103.07,134.512 -77.49,0 -102.35,-30.703 -102.35,-134.512 z m 269.76,0 c 0,-136.711 -44.6,-187.148 -167.41,-187.148 -122.09,0 -167.41,50.437 -167.41,187.148 0,135.969 45.32,187.149 167.41,187.149 122.81,0 167.41,-51.18 167.41,-187.149" /><path
         id="path20"
         style="fill:#100f0d;fill-opacity:1;fill-rule:nonzero;stroke:none"
         d="m 2492.77,285.59 c -2.93,-10.965 -12.43,-17.539 -24.12,-17.539 h -56.3 c -11.69,0 -21.92,8.039 -24.12,19.734 l -58.48,241.981 c -4.39,18.277 -7.31,36.55 -11.7,56.293 h -8.77 c -4.39,-19.743 -8.77,-38.016 -12.42,-56.293 L 2239.1,287.785 c -2.93,-11.695 -12.43,-19.734 -24.86,-19.734 h -55.56 c -11.7,0 -21.2,6.574 -24.12,17.539 l -103.81,338.48 h 64.33 l 73.84,-262.445 c 5.11,-17.551 8.77,-35.82 11.7,-53.367 h 9.5 l 13.16,53.367 59.21,242.711 c 2.2,11.695 10.97,19.734 23.4,19.734 h 56.29 c 11.7,0 20.47,-8.039 23.39,-20.468 l 58.48,-241.977 c 3.65,-17.551 8.77,-35.098 12.43,-53.367 h 9.51 c 4.38,18.269 6.58,35.086 12.42,53.367 l 73.84,262.445 h 64.33 L 2492.77,285.59" /><path
         id="path22"
         style="fill:#100f0d;fill-opacity:1;fill-rule:nonzero;stroke:none"
         d="m 2864.19,481.52 -63.6,200.304 c -4.39,13.16 -8.77,27.781 -12.43,40.938 h -20.47 c -3.66,-13.157 -8.04,-27.778 -12.43,-40.938 l -63.6,-200.304 z m 17.55,-55.571 H 2674.11 L 2624.4,268.051 h -66.52 l 162.3,486.879 c 2.92,10.965 12.42,17.547 24.12,17.547 h 67.25 c 11.7,0 21.2,-6.582 24.12,-17.547 l 162.3,-486.879 h -66.52 l -49.71,157.898" /><path
         id="path24"
         style="fill:#100f0d;fill-opacity:1;fill-rule:nonzero;stroke:none"
         d="m 3288.96,616.031 -8.03,-40.207 c -32.17,2.918 -71.65,4.387 -96.51,4.387 -84.8,0 -114.04,-29.977 -114.04,-133.789 0,-104.531 29.24,-134.516 114.04,-134.516 21.2,0 67.99,1.469 104.54,7.317 l 6.59,-41.668 c -35.82,-12.434 -80.42,-18.282 -122.09,-18.282 -122.82,0 -168.87,49.715 -168.87,187.149 0,137.445 46.05,186.426 169.6,186.426 31.43,0 79.69,-3.66 114.77,-16.817" /><path
         id="path26"
         style="fill:#100f0d;fill-opacity:1;fill-rule:nonzero;stroke:none"
         d="M 3448.36,575.094 V 366.012 c 0,-34.356 13.16,-47.52 48.25,-47.52 h 54.09 l 7.32,-47.519 c -23.39,-6.582 -62.87,-9.504 -80.41,-9.504 -59.95,0 -91.39,34.355 -91.39,96.496 v 217.129 h -64.34 v 45.32 l 64.34,3.656 v 105.274 h 62.14 V 624.07 h 113.31 v -48.976 h -113.31" /><path
         id="path28"
         style="fill:#100f0d;fill-opacity:1;fill-rule:nonzero;stroke:none"
         d="m 3661.85,268.051 h -61.41 V 624.07 h 61.41 z m 2.93,488.34 v -41.668 c 0,-13.16 -5.85,-19.012 -19.01,-19.012 h -29.25 c -12.42,0 -19,5.852 -19,19.012 v 41.668 c 0,11.699 6.58,19.007 19,19.007 h 29.25 c 13.16,0 19.01,-7.308 19.01,-19.007" /><path
         id="path30"
         style="fill:#100f0d;fill-opacity:1;fill-rule:nonzero;stroke:none"
         d="m 3925.03,283.402 c -3.65,-9.5 -11.69,-15.351 -21.92,-15.351 h -56.3 c -10.24,0 -18.28,5.851 -21.93,15.351 L 3694.76,624.07 h 66.52 L 3849,374.781 c 7.32,-20.468 14.62,-42.402 21.2,-62.14 h 9.51 l 21.93,62.14 87.72,249.289 h 65.8 L 3925.03,283.402" /><path
         id="path32"
         style="fill:#100f0d;fill-opacity:1;fill-rule:nonzero;stroke:none"
         d="m 4121.72,463.969 h 150.59 c 32.16,0 38.74,26.316 38.74,52.636 -0.73,45.329 -24.12,63.606 -87.72,63.606 -73.84,0 -99.42,-26.32 -101.61,-116.242 z m 236.85,-143.281 6.59,-41.668 c -33.64,-13.899 -97.23,-19.747 -138.18,-19.747 -122.81,0 -170.33,51.18 -170.33,187.879 0,139.633 48.98,185.696 163.76,185.696 107.46,0 152.78,-39.481 152.78,-116.243 0.74,-63.601 -25.58,-100.886 -84.79,-100.886 h -165.23 c 5.85,-84.797 38.75,-103.813 111.86,-103.813 38.02,0 86.99,3.664 123.54,8.782" /><path
         id="path34"
         style="fill:#ffffff;fill-opacity:1;fill-rule:nonzero;stroke:none"
         d="M 1020.58,510.633 C 1020.58,228.813 792.117,0.351563 510.293,0.351563 228.469,0.351563 0,228.813 0,510.633 c 0,281.828 228.469,510.297 510.293,510.297 281.824,0 510.287,-228.469 510.287,-510.297" /><path
         id="path36"
         style="fill:#4374c2;fill-opacity:1;fill-rule:nonzero;stroke:none"
         d="m 974.871,721.898 c -50.316,-43.48 -99.742,-99.91 -150.433,-157.785 -31.059,-35.465 -63.266,-72.215 -97.098,-107.527 3.121,-2.391 6.246,-4.793 9.355,-7.188 75.684,-58.222 148.266,-114.003 240.27,-145.722 28.055,63.23 43.775,133.164 43.775,206.801 0,75.441 -16.49,146.984 -45.869,211.421" /><g
         id="g38"><g
           clip-path="url(#clipPath44)"
           id="g40"><path
             id="path56"
             style="fill:url(#linearGradient54);fill-opacity:1;fill-rule:nonzero;stroke:none"
             d="M 407.207,504.316 C 282.527,436.129 146.078,432.16 0.242188,492.16 0.570313,482.848 1.12891,473.598 1.94922,464.418 138.254,322.672 274.391,262.965 407.859,286.762 c 105.051,18.742 193.098,85.226 274.278,166.437 -55.735,42.156 -114.414,83.235 -184.453,114.727 -25.403,-22.238 -54.715,-44.051 -90.477,-63.61" /></g></g><g
         id="g58"><g
           clip-path="url(#clipPath64)"
           id="g60"><path
             id="path76"
             style="fill:url(#linearGradient74);fill-opacity:1;fill-rule:nonzero;stroke:none"
             d="m 378.973,638.734 c 41.011,-8.972 78.254,-21.101 112.789,-35.41 18.742,17.446 35.508,34.992 51.301,51.637 17.109,18.035 33.281,35.07 50.273,50.184 94.383,83.886 213.34,105.699 355.949,65.773 -88.98,149.684 -252.25,250.042 -439.027,250.042 -242.598,0 -445.5236,-169.284 -497.4611,-396.136 128.2151,34.371 250.9411,39.125 366.1761,13.91" /></g></g><g
         id="g78"><g
           clip-path="url(#clipPath84)"
           id="g80"><path
             id="path96"
             style="fill:url(#linearGradient94);fill-opacity:1;fill-rule:nonzero;stroke:none"
             d="m 801.781,583.965 c 49.508,56.531 97.891,111.758 147.649,155.808 -135.907,39.911 -248.211,20.957 -336.075,-57.148 -16.046,-14.258 -31.777,-30.844 -48.437,-48.402 -13.539,-14.274 -27.723,-29.184 -43.246,-44.176 68.703,-32.41 126.586,-73.34 181.695,-115.149 33.61,35.082 66.168,72.247 98.414,109.067" /></g></g><g
         id="g98"><g
           clip-path="url(#clipPath104)"
           id="g100"><path
             id="path116"
             style="fill:url(#linearGradient114);fill-opacity:1;fill-rule:nonzero;stroke:none"
             d="m 392.754,530.75 c 28.223,15.438 52.172,32.559 73.519,50.215 -29.125,11.297 -60.121,20.984 -93.734,28.336 C 257.828,634.414 135.016,628.359 6.27734,591.699 2.79688,569.906 0.78125,547.641 0.144531,525.023 141.762,463.715 273.438,465.492 392.754,530.75" /></g></g><g
         id="g118"><g
           clip-path="url(#clipPath124)"
           id="g120"><g
             clip-path="url(#clipPath130)"
             id="g126"><path
               id="path142"
               style="fill:url(#linearGradient140);fill-opacity:1;fill-rule:nonzero;stroke:none"
               d="m 479,0 v 1 h -15 v 1 h -9 v 1 h -9 v 1 h -8 v 1 h -6 v 1 h -6 v 1 h -7 v 1 h -5 v 1 h -5 v 1 h -5 v 1 h -5 v 1 h -4 v 1 h -4 v 1 h -4 v 1 h -4 v 1 h -4 v 1 h -4 v 1 h -3 v 1 h -4 v 1 h -3 v 1 h -4 v 1 h -3 v 1 h -3 v 1 h -3 v 1 h -3 v 1 h -3 v 1 h -3 v 1 h -3 v 1 h -3 v 1 h -3 v 1 h -2 v 1 h -3 v 1 h -3 v 1 h -2 v 1 h -3 v 1 h -2 v 1 h -3 v 1 h -2 v 1 h -3 v 1 h -2 v 1 h -2 v 1 h -2 v 1 h -3 v 1 h -2 v 1 h -2 v 1 h -2 v 1 h -3 v 1 h -2 v 1 h -2 v 1 h -2 v 1 h -2 v 1 h -2 v 1 h -2 v 1 h -2 v 1 h -2 v 1 h -2 v 1 h -2 v 1 h -2 v 1 h -1 v 1 h -2 v 1 h -2 v 1 h -2 v 1 h -2 v 1 h -1 v 1 h -2 v 1 h -2 v 1 h -2 v 1 h -2 v 1 h -1 v 1 h -2 v 1 h -2 v 1 h -1 v 1 h -2 v 1 h -1 v 1 h -2 v 1 h -2 v 1 h -1 v 1 h -2 v 1 h -2 v 1 h -1 v 1 h -2 v 1 h -1 v 1 h -2 v 1 h -1 v 1 h -2 v 1 h -1 v 1 h -2 v 1 h -1 v 1 h -2 v 1 h -1 v 1 h -2 v 1 h -1 v 1 h -1 v 1 h -2 v 1 h -1 v 1 h -1 v 1 h -2 v 1 h -1 v 1 h -2 v 1 h -1 v 1 h -1 v 1 h -2 v 1 h -1 v 1 h -1 v 1 h -2 v 1 h -1 v 1 h -1 v 1 h -1 v 1 h -2 v 1 h -1 v 1 h -1 v 1 h -1 v 1 h -2 v 1 h -1 v 1 h -1 v 1 h -1 v 1 h -2 v 1 h -1 v 1 h -1 v 1 h -1 v 1 h -1 v 1 h -1 v 1 h -2 v 1 h -1 v 1 h -1 v 1 h -1 v 1 h -1 v 1 h -1 v 1 h -1 v 1 h -2 v 1 h -1 v 1 h -1 v 1 h -1 v 1 h -1 v 1 h -1 v 1 h -1 v 1 h -1 v 1 h -1 v 1 h -1 v 1 h -1 v 1 h -1 v 1 h -1 v 1 h -1 v 1 h -1 v 1 h -1 v 1 h -2 v 1 h -1 v 1 h -1 v 1 h -1 v 2 h -1 v 1 h -1 v 1 h -1 v 1 h -1 v 1 h -1 v 1 h -1 v 1 h -1 v 1 h -1 v 1 h -1 v 1 h -1 v 1 h -1 v 1 h -1 v 1 h -1 v 1 h -1 v 1 h -1 v 1 h -1 v 1 h -1 v 2 h -1 v 1 h -1 v 1 h -1 v 1 h -1 v 1 h -1 v 1 h -1 v 1 h -1 v 1 h -1 v 2 h -1 v 1 h -1 v 1 h -1 v 1 h -1 v 1 h -1 v 2 h -1 v 1 h -1 v 1 h -1 v 1 h -1 v 1 h -1 v 2 h -1 v 1 h -1 v 1 h -1 v 1 h -1 v 2 h -1 v 1 h -1 v 1 h -1 v 1 h -1 v 2 h -1 v 1 h -1 v 1 h -1 v 2 h -1 v 1 h -1 v 2 h -1 v 1 h -1 v 1 h -1 v 2 h -1 v 1 h -1 v 1 h -1 v 2 h -1 v 1 h -1 v 2 h -1 v 1 h -1 v 1 h -1 v 2 h -1 v 1 h -1 v 2 h -1 v 1 h -1 v 2 h -1 v 1 h -1 v 2 h -1 v 1 h -1 v 2 h -1 v 1 h -1 v 2 h -1 v 2 h -1 v 1 h -1 v 2 h -1 v 2 h -1 v 1 h -1 v 2 h -1 v 1 h -1 v 2 h -1 v 2 h -1 v 1 h -1 v 2 h -1 v 2 h -1 v 2 h -1 v 2 h -1 v 1 h -1 v 2 h -1 v 2 h -1 v 2 h -1 v 1 h -1 v 2 h -1 v 2 h -1 v 2 h -1 v 2 h -1 v 2 h -1 v 2 h -1 v 2 h -1 v 2 h -1 v 2 h -1 v 2 h -1 v 2 h -1 v 3 h -1 v 2 h -1 v 2 h -1 v 2 h -1 v 2 h -1 v 3 h -1 v 2 h -1 v 2 h -1 v 3 h -1 v 2 h -1 v 2 h -1 v 3 h -1 v 2 h -1 v 3 h -1 v 2 h -1 v 3 h -1 v 3 h -1 v 2 h -1 v 3 h -1 v 3 h -1 v 3 h -1 v 3 h -1 v 3 h -1 v 3 h -1 v 3 h -1 v 3 h -1 v 3 h -1 v 4 h -1 v 3 h -1 v 3 h -1 v 4 h -1 v 4 h -1 v 4 h -1 v 4 h -1 v 4 h -1 v 4 h -1 v 4 h -1 v 5 h -1 v 4 H 9 v 6 H 8 v 2 h 1 v -1 h 1 v -1 h 1 v -1 h 1 v -1 h 2 v -1 h 1 v -1 h 1 v -1 h 1 v -1 h 1 v -1 h 1 v -1 h 1 v -1 h 1 v -1 h 1 v -1 h 1 v -1 h 1 v -1 h 1 v -1 h 2 v -1 h 1 v -1 h 1 v -1 h 1 v -1 h 1 v -1 h 1 v -1 h 1 v -1 h 2 v -1 h 1 v -1 h 1 v -1 h 1 v -1 h 1 v -1 h 1 v -1 h 1 v -1 h 2 v -1 h 1 v -1 h 1 v -1 h 1 v -1 h 1 v -1 h 1 v -1 h 1 v -1 h 1 v -1 h 2 v -1 h 1 v -1 h 1 v -1 h 1 v -1 h 2 v -1 h 1 v -1 h 1 v -1 h 2 v -1 h 1 v -1 h 1 v -1 h 1 v -1 h 2 v -1 h 1 v -1 h 1 v -1 h 2 v -1 h 1 v -1 h 1 v -1 h 1 v -1 h 2 v -1 h 1 v -1 h 1 v -1 h 2 v -1 h 1 v -1 h 1 v -1 h 1 v -1 h 2 v -1 h 1 v -1 h 1 v -1 h 2 v -1 h 1 v -1 h 1 v -1 h 1 v -1 h 2 v -1 h 1 v -1 h 1 v -1 h 2 v -1 h 1 v -1 h 2 v -1 h 2 v -1 h 1 v -1 h 2 v -1 h 1 v -1 h 2 v -1 h 1 v -1 h 2 v -1 h 1 v -1 h 2 v -1 h 1 v -1 h 2 v -1 h 1 v -1 h 2 v -1 h 1 v -1 h 2 v -1 h 1 v -1 h 2 v -1 h 1 v -1 h 2 v -1 h 1 v -1 h 2 v -1 h 1 v -1 h 2 v -1 h 1 v -1 h 2 v -1 h 2 v -1 h 2 v -1 h 2 v -1 h 2 v -1 h 1 v -1 h 2 v -1 h 2 v -1 h 2 v -1 h 2 v -1 h 2 v -1 h 2 v -1 h 1 v -1 h 2 v -1 h 2 v -1 h 2 v -1 h 2 v -1 h 2 v -1 h 2 v -1 h 1 v -1 h 2 v -1 h 2 v -1 h 2 v -1 h 2 v -1 h 2 v -1 h 3 v -1 h 2 v -1 h 3 v -1 h 2 v -1 h 2 v -1 h 3 v -1 h 2 v -1 h 3 v -1 h 2 v -1 h 2 v -1 h 3 v -1 h 2 v -1 h 2 v -1 h 3 v -1 h 2 v -1 h 3 v -1 h 2 v -1 h 4 v -1 h 3 v -1 h 3 v -1 h 4 v -1 h 3 v -1 h 4 v -1 h 3 v -1 h 3 v -1 h 4 v -1 h 3 v -1 h 3 v -1 h 4 v -1 h 5 v -1 h 5 v -1 h 6 v -1 h 5 v -1 h 6 v -1 h 5 v -1 h 6 v -1 h 6 v -1 h 12 v -1 h 13 v -1 h 32 v 1 h 16 v 1 h 8 v 1 h 8 v 1 h 8 v 1 h 6 v 1 h 6 v 1 h 5 v 1 h 4 v 1 h 4 v 1 h 4 v 1 h 4 v 1 h 3 v 1 h 4 v 1 h 4 v 1 h 4 v 1 h 3 v 1 h 3 v 1 h 2 v 1 h 3 v 1 h 3 v 1 h 3 v 1 h 3 v 1 h 2 v 1 h 3 v 1 h 3 v 1 h 3 v 1 h 2 v 1 h 3 v 1 h 3 v 1 h 2 v 1 h 2 v 1 h 3 v 1 h 2 v 1 h 2 v 1 h 2 v 1 h 2 v 1 h 2 v 1 h 2 v 1 h 2 v 1 h 2 v 1 h 2 v 1 h 2 v 1 h 3 v 1 h 2 v 1 h 2 v 1 h 2 v 1 h 2 v 1 h 2 v 1 h 2 v 1 h 1 v 1 h 2 v 1 h 2 v 1 h 1 v 1 h 2 v 1 h 2 v 1 h 2 v 1 h 1 v 1 h 2 v 1 h 2 v 1 h 1 v 1 h 2 v 1 h 2 v 1 h 1 v 1 h 2 v 1 h 2 v 1 h 1 v 1 h 2 v 1 h 2 v 1 h 2 v 1 h 1 v 1 h 2 v 1 h 1 v 1 h 1 v 1 h 2 v 1 h 1 v 1 h 2 v 1 h 1 v 1 h 2 v 1 h 1 v 1 h 1 v 1 h 2 v 1 h 1 v 1 h 2 v 1 h 1 v 1 h 2 v 1 h 1 v 1 h 2 v 1 h 1 v 1 h 1 v 1 h 2 v 1 h 1 v 1 h 2 v 1 h 1 v 1 h 2 v 1 h 1 v 1 h 1 v 1 h 1 v 1 h 2 v 1 h 1 v 1 h 1 v 1 h 1 v 1 h 2 v 1 h 1 v 1 h 1 v 1 h 1 v 1 h 2 v 1 h 1 v 1 h 1 v 1 h 2 v 1 h 1 v 1 h 1 v 1 h 1 v 1 h 2 v 1 h 1 v 1 h 1 v 1 h 1 v 1 h 2 v 1 h 1 v 1 h 1 v 1 h 1 v 1 h 2 v 1 h 1 v 1 h 1 v 1 h 1 v 1 h 1 v 1 h 1 v 1 h 1 v 1 h 2 v 1 h 1 v 1 h 1 v 1 h 1 v 1 h 1 v 1 h 1 v 1 h 1 v 1 h 2 v 1 h 1 v 1 h 1 v 1 h 1 v 1 h 1 v 1 h 1 v 1 h 1 v 1 h 1 v 1 h 2 v 1 h 1 v 1 h 1 v 1 h 1 v 1 h 1 v 1 h 1 v 1 h 1 v 1 h 1 v 1 h 2 v 1 h 1 v 1 h 1 v 1 h 1 v 1 h 1 v 1 h 1 v 1 h 1 v 1 h 1 v 1 h 1 v 1 h 1 v 1 h 1 v 1 h 1 v 1 h 1 v 1 h 1 v 1 h 1 v 1 h 1 v 1 h 1 v 1 h 1 v 1 h 1 v 1 h 2 v 1 h 1 v 1 h 1 v 1 h 1 v 1 h 1 v 1 h 1 v 1 h 1 v 1 h 1 v 1 h 1 v 1 h 1 v 1 h 1 v 1 h 1 v 1 h 1 v 1 h 3 v -1 h 1 v -1 h 1 v -1 h 2 v -1 h 1 v -1 h 1 v -1 h 2 v -1 h 1 v -1 h 1 v -1 h 2 v -1 h 1 v -1 h 1 v -1 h 1 v -1 h 2 v -1 h 1 v -1 h 1 v -1 h 2 v -1 h 1 v -1 h 1 v -1 h 2 v -1 h 1 v -1 h 1 v -1 h 1 v -1 h 2 v -1 h 1 v -1 h 1 v -1 h 2 v -1 h 1 v -1 h 1 v -1 h 2 v -1 h 1 v -1 h 1 v -1 h 2 v -1 h 1 v -1 h 1 v -1 h 2 v -1 h 1 v -1 h 1 v -1 h 2 v -1 h 1 v -1 h 1 v -1 h 2 v -1 h 1 v -1 h 1 v -1 h 2 v -1 h 1 v -1 h 1 v -1 h 2 v -1 h 1 v -1 h 1 v -1 h 2 v -1 h 1 v -1 h 1 v -1 h 2 v -1 h 1 v -1 h 1 v -1 h 2 v -1 h 1 v -1 h 2 v -1 h 1 v -1 h 1 v -1 h 2 v -1 h 1 v -1 h 2 v -1 h 1 v -1 h 1 v -1 h 2 v -1 h 1 v -1 h 2 v -1 h 1 v -1 h 1 v -1 h 2 v -1 h 1 v -1 h 1 v -1 h 2 v -1 h 1 v -1 h 2 v -1 h 1 v -1 h 2 v -1 h 1 v -1 h 2 v -1 h 1 v -1 h 2 v -1 h 1 v -1 h 2 v -1 h 1 v -1 h 2 v -1 h 1 v -1 h 2 v -1 h 1 v -1 h 2 v -1 h 1 v -1 h 2 v -1 h 1 v -1 h 2 v -1 h 2 v -1 h 1 v -1 h 2 v -1 h 1 v -1 h 2 v -1 h 2 v -1 h 1 v -1 h 2 v -1 h 2 v -1 h 1 v -1 h 2 v -1 h 1 v -1 h 2 v -1 h 2 v -1 h 1 v -1 h 2 v -1 h 2 v -1 h 1 v -1 h 2 v -1 h 2 v -1 h 2 v -1 h 2 v -1 h 1 v -1 h 2 v -1 h 2 v -1 h 2 v -1 h 2 v -1 h 2 v -1 h 1 v -1 h 2 v -1 h 2 v -1 h 2 v -1 h 2 v -1 h 2 v -1 h 2 v -1 h 2 v -1 h 2 v -1 h 2 v -1 h 2 v -1 h 2 v -1 h 2 v -1 h 2 v -1 h 3 v -1 h 2 v -1 h 2 v -1 h 2 v -1 h 2 v -1 h 2 v -1 h 2 v -1 h 2 v -1 h 3 v -1 h 2 v -1 h 3 v -1 h 2 v -1 h 3 v -1 h 2 v -1 h 3 v -1 h 2 v -1 h 3 v -1 h 2 v -1 h 3 v -1 h 2 v -1 h 3 v -1 h 2 v -3 h -1 v -2 h -1 v -2 h -1 v -2 h -1 v -1 h -1 v -2 h -1 v -2 h -1 v -2 h -1 v -1 h -1 v -2 h -1 v -2 h -1 v -1 h -1 v -2 h -1 v -2 h -1 v -2 h -1 v -1 h -1 v -2 h -1 v -2 h -1 v -1 h -1 v -2 h -1 v -1 h -1 v -2 h -1 v -1 h -1 v -2 h -1 v -1 h -1 v -2 h -1 v -1 h -1 v -2 h -1 v -2 h -1 v -1 h -1 v -2 h -1 v -1 h -1 v -2 h -1 v -1 h -1 v -2 h -1 v -1 h -1 v -2 h -1 v -1 h -1 v -1 h -1 v -2 h -1 v -1 h -1 v -1 h -1 v -2 h -1 v -1 h -1 v -1 h -1 v -2 h -1 v -1 h -1 v -1 h -1 v -1 h -1 v -2 h -1 v -1 h -1 v -1 h -1 v -2 h -1 v -1 h -1 v -1 h -1 v -2 h -1 v -1 h -1 v -1 h -1 v -1 h -1 v -2 h -1 v -1 h -1 v -1 h -1 v -1 h -1 v -1 h -1 v -1 h -1 v -1 h -1 v -2 h -1 v -1 h -1 v -1 h -1 v -1 h -1 v -1 h -1 v -1 h -1 v -2 h -1 v -1 h -1 v -1 h -1 v -1 h -1 v -1 h -1 v -1 h -1 v -1 h -1 v -2 h -1 v -1 h -1 v -1 h -1 v -1 h -1 v -1 h -1 v -1 h -1 v -1 h -1 v -1 h -1 v -1 h -1 v -1 h -1 v -1 h -1 v -1 h -1 v -1 h -1 v -1 h -1 v -1 h -1 v -1 h -1 v -1 h -1 v -1 h -1 v -1 h -1 v -1 h -1 v -1 h -1 v -1 h -1 v -1 h -1 v -1 h -1 v -1 h -1 v -1 h -2 v -1 h -1 v -1 h -1 v -1 h -1 v -1 h -1 v -1 h -1 v -1 h -1 v -1 h -1 v -1 h -2 v -1 h -1 v -1 h -1 v -1 h -1 v -1 h -1 v -1 h -1 v -1 h -1 v -1 h -2 v -1 h -1 v -1 h -1 v -1 h -1 v -1 h -1 v -1 h -1 v -1 h -1 v -1 h -2 v -1 h -1 v -1 h -1 v -1 h -2 v -1 h -1 v -1 h -1 v -1 h -2 v -1 h -1 v -1 h -1 v -1 h -1 v -1 h -2 v -1 h -1 v -1 h -1 v -1 h -2 v -1 h -1 v -1 h -1 v -1 h -1 v -1 h -2 v -1 h -1 v -1 h -1 v -1 h -2 v -1 h -1 v -1 h -2 v -1 h -1 v -1 h -2 v -1 h -1 v -1 h -2 v -1 h -1 v -1 h -2 v -1 h -1 v -1 h -2 v -1 h -1 v -1 h -2 v -1 h -1 v -1 h -2 v -1 h -1 v -1 h -2 v -1 h -1 v -1 h -2 v -1 h -1 v -1 h -2 v -1 h -2 v -1 h -2 v -1 h -1 v -1 h -2 v -1 h -2 v -1 h -1 v -1 h -2 v -1 h -2 v -1 h -2 v -1 h -1 v -1 h -2 v -1 h -2 v -1 h -2 v -1 h -1 v -1 h -2 v -1 h -2 v -1 h -2 v -1 h -2 v -1 h -2 v -1 h -2 v -1 h -2 v -1 h -2 v -1 h -2 v -1 h -2 v -1 h -2 v -1 h -2 v -1 h -2 v -1 h -3 v -1 h -2 v -1 h -2 v -1 h -2 v -1 h -2 v -1 h -3 v -1 h -2 v -1 h -3 v -1 h -2 v -1 h -2 v -1 h -3 v -1 h -2 v -1 h -3 v -1 h -2 v -1 h -3 v -1 h -2 v -1 h -3 v -1 h -3 v -1 h -3 v -1 h -3 v -1 h -3 v -1 h -3 v -1 h -3 v -1 h -3 v -1 h -3 v -1 h -3 v -1 h -3 v -1 h -3 v -1 h -4 v -1 h -4 v -1 h -4 v -1 h -4 v -1 h -4 v -1 h -4 v -1 h -4 v -1 h -4 v -1 h -5 v -1 h -5 V 9 h -6 V 8 h -5 V 7 h -6 V 6 h -6 V 5 h -6 V 4 h -9 V 3 h -9 V 2 H 554 V 1 H 541 V 0" /></g></g></g></g></g></svg>