<?xml version="1.0" encoding="UTF-8"?>
<!DOCTYPE svg PUBLIC "-//W3C//DTD SVG 1.1//EN" "http://www.w3.org/Graphics/SVG/1.1/DTD/svg11.dtd">
<!-- Creator: CorelDRAW X6 -->
<svg xmlns="http://www.w3.org/2000/svg" xml:space="preserve" width="6.06944in" height="1.41666in" version="1.1" style="shape-rendering:geometricPrecision; text-rendering:geometricPrecision; image-rendering:optimizeQuality; fill-rule:evenodd; clip-rule:evenodd"
viewBox="0 0 6069 1417"
 xmlns:xlink="http://www.w3.org/1999/xlink">
 <defs>
  <style type="text/css">
   <![CDATA[
    .fil0 {fill:#FEFEFE;fill-rule:nonzero}
   ]]>
  </style>
 </defs>
 <g id="Layer_x0020_1">
  <metadata id="CorelCorpID_0Corel-Layer"/>
  <path class="fil0" d="M1730 486l0 162 292 0 0 72 -292 0 0 324 -89 0 0 -576c0,-80 53,-126 135,-126 97,0 200,0 290,7l-5 69 -263 0c-48,0 -68,20 -68,67z"/>
  <path class="fil0" d="M2201 908c0,44 24,66 68,66l48 0 10 66c-19,9 -66,13 -90,13 -73,0 -121,-45 -121,-126l0 -594 86 0 -1 575z"/>
  <path class="fil0" d="M2427 798c0,144 35,187 142,187 108,0 143,-43 143,-187 0,-144 -36,-187 -143,-187 -108,0 -142,43 -142,187zm375 0c0,190 -62,260 -233,260 -170,0 -233,-70 -233,-260 0,-189 63,-260 233,-260 171,0 233,71 233,260z"/>
  <path class="fil0" d="M3462 1020c-4,15 -17,24 -34,24l-78 0c-16,0 -30,-11 -34,-27l-81 -336c-6,-25 -10,-51 -16,-78l-12 0c-6,27 -12,53 -17,78l-80 336c-4,16 -17,27 -35,27l-77 0c-16,0 -29,-9 -34,-24l-144 -470 89 0 103 365c7,24 12,50 16,74l13 0 18 -74 82 -337c3,-16 15,-27 33,-27l78 0c16,0 28,11 32,28l81 336c5,24 12,49 17,74l13 0c6,-25 9,-49 17,-74l103 -365 89 0 -144 470z"/>
  <path class="fil0" d="M3978 748l-88 -278c-6,-18 -12,-39 -17,-57l-28 0c-5,18 -11,39 -17,57l-88 278 240 0zm24 77l-288 0 -69 219 -92 0 225 -676c4,-15 17,-24 34,-24l93 0c16,0 29,9 34,24l225 676 -92 0 -69 -219z"/>
  <path class="fil0" d="M4568 561l-11 56c-45,-4 -100,-6 -134,-6 -118,0 -158,42 -158,186 0,145 41,187 158,187 29,0 94,-2 145,-10l9 58c-50,17 -112,25 -170,25 -171,0 -235,-69 -235,-260 0,-191 64,-259 236,-259 44,0 111,5 159,23z"/>
  <path class="fil0" d="M4789 618l0 290c0,48 18,66 67,66l75 0 10 66c-32,9 -87,13 -112,13 -83,0 -127,-48 -127,-134l0 -302 -89 0 0 -63 89 -5 0 -146 86 0 0 146 157 0 0 68 -157 0z"/>
  <path class="fil0" d="M5086 1044l-85 0 0 -494 85 0 0 494zm4 -678l0 58c0,18 -8,26 -26,26l-41 0c-17,0 -26,-8 -26,-26l0 -58c0,-16 9,-26 26,-26l41 0c18,0 26,10 26,26z"/>
  <path class="fil0" d="M5451 1023c-5,13 -16,21 -30,21l-78 0c-14,0 -25,-8 -30,-21l-181 -473 92 0 122 346c10,28 20,59 29,86l13 0 30 -86 122 -346 91 0 -181 473z"/>
  <path class="fil0" d="M5724 772l209 0c45,0 54,-37 54,-73 -1,-63 -34,-88 -122,-88 -103,0 -138,37 -141,161zm349 -63l0 -16c-2,-103 -66,-156 -212,-156 -159,0 -227,64 -227,258 0,190 66,261 237,261 57,0 145,-8 192,-27l-9 -58c-51,7 -119,12 -172,12 -102,0 -147,-26 -155,-144l229 0c79,0 116,-48 118,-130z"/>
  <path class="fil0" d="M1354 414c-70,60 -139,139 -209,219 -43,49 -88,100 -135,149 4,3 9,7 13,10 105,81 206,158 334,202 39,-88 61,-185 61,-287 0,-105 -23,-204 -64,-294z"/>
  <path class="fil0" d="M565 716c-173,95 -363,100 -565,17 0,13 1,26 2,39 189,197 378,280 564,247 146,-26 268,-118 381,-231 -77,-59 -159,-116 -256,-159 -35,31 -76,61 -126,88z"/>
  <path class="fil0" d="M526 530c57,12 109,29 157,49 26,-24 49,-49 71,-72 24,-25 46,-49 70,-70 131,-117 296,-147 494,-91 -124,-208 -350,-347 -610,-347 -337,0 -619,235 -691,550 178,-48 349,-54 509,-19z"/>
  <path class="fil0" d="M1113 606c69,-79 136,-155 205,-216 -189,-55 -345,-29 -467,79 -22,20 -44,43 -67,67 -19,20 -39,41 -60,61 95,45 176,102 252,160 47,-49 92,-100 137,-151z"/>
  <path class="fil0" d="M545 680c39,-21 72,-45 102,-70 -40,-16 -84,-29 -130,-39 -159,-35 -330,-26 -509,24 -5,30 -8,61 -9,93 197,85 380,83 545,-8z"/>
  <path class="fil0" d="M981 813c-118,118 -250,219 -407,247 -29,5 -58,8 -87,8 -158,0 -317,-76 -474,-227 62,328 349,576 695,576l3 0c274,-1 511,-156 628,-384 -131,-46 -234,-125 -341,-207 -6,-4 -11,-9 -17,-13z"/>
 </g>
</svg>
