<svg viewBox="0 0 900 100" xmlns="http://www.w3.org/2000/svg"><path d="m91.8 37.3h-.8c-.3-6.3-3.7-9.5-10.4-9.5l-9.4-.1v42.7c0 3.5.5 5.7 1.4 6.7.9.9 3.1 1.6 6.5 2v.6h-24.4v-.6c3.5-.4 5.6-1 6.5-2 .9-.9 1.3-3.2 1.3-6.7v-42.7l-9.4.1c-7 .1-10.5 3.2-10.5 9.5h-.8c0-3.7.3-7.9 1-12.4h47.9c.8 4.5 1.1 8.7 1.1 12.4z"/><path d="m154.7 25.5c-2.9.2-4.9.8-5.9 1.8-1.3 1.2-1.9 3.5-1.9 6.8v36.2c0 3.4.6 5.6 1.8 6.8 1 1 3 1.6 6 1.8v.6h-24.2v-.6c2.9-.2 5-.9 6.1-2s1.7-3.3 1.7-6.7v-17.1h-27.2v17.3c0 3.5.6 5.8 1.8 7 1 1 3 1.5 6 1.7v.6h-24.2v-.6c3-.2 5-.7 6-1.7 1.2-1.2 1.8-3.5 1.8-7v-36.2c0-3.5-.6-5.8-1.8-6.9-1-1-3-1.5-6-1.8v-.6h24.3v.6c-3 .3-5.1.9-6.1 1.8-1.2 1.1-1.8 3.4-1.8 6.9v15.9h27.2v-15.9c0-3.4-.6-5.6-1.8-6.8-1.1-1-3.1-1.6-6.1-1.8v-.6h24.2v.5z"/><path d="m208.3 65.5c0 1.4-.6 3.8-1.9 7.3-1 2.3-1.9 4.6-2.8 7h-44.5v-.6c3.4-.4 5.5-1 6.4-2s1.4-3.2 1.4-6.6v-36.3c0-3.6-.4-5.8-1.3-6.8s-3.1-1.6-6.5-1.9v-.6h43.2l.6 12.4h-.8c-.9-4.1-2-6.7-3.3-7.8-1.4-1.2-4-1.8-8-1.8l-15.3-.1v21.8l12.2-.1c3.4 0 5.8-.6 7.2-1.7s2.1-3.2 2.4-6.3h.8v19.1h-.8c-.2-3-1-5.1-2.3-6.2s-3.7-1.7-7.2-1.8l-12.2-.2v21.4c0 2 1.2 3 3.5 3l14.2-.1c4.6 0 8.4-1.7 11.2-5 1.8-2.1 2.8-4.2 3.2-6.2h.6z"/><g fill="#1a81c4"><path d="m284.5 52.6c0 9.2-3 16.1-9 20.6-5.5 4.3-13.5 6.5-23.8 6.5h-26.9v-.6c3.3-.2 5.4-.8 6.4-1.8s1.5-3.3 1.5-6.8v-36.6c0-3.5-.6-5.7-1.7-6.7-.9-.8-3-1.3-6.3-1.6v-.6h25.8c9.2 0 17.1 2.4 23.5 7.1 7 5.1 10.5 11.9 10.5 20.5zm-10.1-.1c0-6.6-2.2-12.3-6.6-17.1-4.8-5.2-11-7.8-18.6-7.8-2.6 0-5.2.4-7.9 1.2v47.1c1.5.6 4.1 1 7.6 1 17-.1 25.5-8.2 25.5-24.4z"/><path d="m337.7 79.7h-23.9v-.6c2.2-.1 3.7-.4 4.6-.9 1.1-.6 1.7-1.5 1.7-2.9 0-1-.4-2.5-1.3-4.3l-4.3-9.4h-22.1l-3.8 8.5c-1.1 2.4-1.6 4.1-1.6 5.1 0 1.2.5 2.1 1.5 2.7s2.7.9 5.2 1.2v.6h-18.3v-.6c2.6-.3 4.4-.8 5.4-1.5s2.1-2.3 3.2-4.8l22.3-49.8 23 49.8c1.1 2.5 2.1 4.1 3 4.7s2.7 1.1 5.4 1.5zm-24.5-20.9-9.9-21.5-9.6 21.5z"/><path d="m365.8 79.7h-24.2v-.6c3-.2 5-.8 6.1-1.9 1.1-1 1.6-3.3 1.6-6.8v-36.2c0-3.5-.6-5.8-1.8-6.9-1-1-3-1.5-6-1.8v-.6h24.2v.6c-3 .2-5 .8-6 1.8-1.2 1.1-1.8 3.4-1.8 6.9v36.2c0 3.5.6 5.8 1.8 6.9 1 1 3 1.5 6 1.8v.6z"/><path d="m418.9 65.5c0 .8-.4 2.1-1.1 3.8-1.8 4-3.2 7.5-4.4 10.5h-43v-.6c3.1-.3 5.1-.9 6.1-1.8 1.2-1.1 1.8-3.3 1.8-6.8v-36.4c0-3.5-.6-5.8-1.8-6.9-1-1-3-1.5-6-1.8v-.6h24.1v.6c-3.1.2-5.1.8-6.1 1.8-1.1 1.1-1.7 3.4-1.7 6.9v39.4c0 1.5.7 2.5 2.2 2.7.3.1 1.7.1 4.2.1l9.4-.1c4.9-.1 8.8-1.6 11.9-4.6 2.2-2.2 3.4-4.3 3.6-6.2z"/><path d="m463.4 25.5c-3.6.4-6.6 2.4-9.1 6.2l-16.6 24.6v14.2c0 3.5.4 5.7 1.3 6.7s3 1.6 6.4 2v.6h-24.2v-.6c3.4-.3 5.6-1 6.5-2s1.4-3.2 1.4-6.7v-14.2l-16.4-24.6c-2.4-3.6-5.4-5.7-8.9-6.2v-.6h24.2v.6c-4.2.3-6.2 1.3-6.2 3.2 0 .9.9 2.7 2.7 5.4l11.8 18.2 11.2-16.8c2.2-3.3 3.3-5.6 3.3-6.9 0-1.9-2.1-2.9-6.2-3.2v-.6h18.7v.7z"/></g><path d="m530.6 50.7c-3.1.4-5.1 1.3-5.8 2.5-.5.8-.7 2.9-.7 6.2v15.2c-6.5 4.2-14.2 6.3-23 6.3-8.1 0-15.1-2.6-21.3-7.7-6.7-5.5-10.1-12.5-10.1-20.9 0-8 3-14.8 8.9-20.1 5.9-5.4 13.5-8.1 22.9-8.1 5 0 9.7.9 14.2 2.8.5.2 1.1.3 1.8.3.8 0 1.5-.3 2.1-1 .6-.6.9-1.4.8-2.1h.8l1.9 16.7-.8.2c-4-9.5-11.1-14.3-21.3-14.3-6.7 0-11.9 2-15.5 6.1-3.8 4.3-5.8 10.7-5.8 19.1 0 7.8 2.5 14.2 7.4 19.3 4.4 4.6 9.5 6.9 15.2 6.9 5.1 0 9.4-1.4 13.1-4.2v-14.6c0-3.4-.7-5.7-2.2-6.9-1-.9-2.9-1.5-5.8-1.8v-.6h23.1v.7z"/><path d="m586.2 79.7h-23.9v-.6c2.2-.1 3.7-.4 4.6-.9 1.1-.6 1.7-1.5 1.7-2.9 0-1-.4-2.5-1.3-4.3l-4.3-9.4h-22l-3.8 8.5c-1.1 2.4-1.6 4.1-1.6 5.1 0 1.2.5 2.1 1.5 2.7s2.7.9 5.2 1.2v.6h-18.3v-.6c2.6-.3 4.4-.8 5.4-1.5s2.1-2.3 3.2-4.8l22.3-49.8 23 49.8c1.1 2.5 2.1 4.1 3 4.7s2.7 1.1 5.4 1.5v.7zm-24.4-20.9-9.9-21.5-9.6 21.5z"/><path d="m640.4 65.1c0 1.9-1.1 6.7-3.2 14.6h-47l36.6-52.2-19.8.2c-3.4.1-5.9.8-7.6 2.1-1.6 1.4-2.7 3.8-3.3 7.4h-.8l1.2-12.3h42.5l-36.2 51.5 22.3-.2c4.1-.1 7.4-1.1 10-3.3 2.3-2 3.8-4.6 4.5-7.9h.8z"/><path d="m692.5 65.5c0 1.4-.6 3.8-1.9 7.3-1 2.3-1.9 4.6-2.8 7h-44.5v-.6c3.4-.4 5.5-1 6.4-2s1.4-3.2 1.4-6.6v-36.3c0-3.6-.4-5.8-1.3-6.8s-3.1-1.6-6.5-1.9v-.6h43.2l.6 12.4h-.8c-.9-4.1-2-6.7-3.3-7.8-1.4-1.2-4-1.8-8-1.8l-15.3-.1v21.8l12.2-.1c3.4 0 5.8-.6 7.2-1.7s2.1-3.2 2.4-6.3h.8v19.1h-.8c-.2-3-1-5.1-2.3-6.2s-3.7-1.7-7.2-1.8l-12.2-.2v21.4c0 2 1.2 3 3.5 3l14.2-.1c4.6 0 8.4-1.7 11.2-5 1.8-2.1 2.8-4.2 3.2-6.2h.6z"/><path d="m742.5 37.3h-.9c-.3-6.3-3.7-9.5-10.4-9.5l-9.4-.1v42.7c0 3.5.5 5.7 1.4 6.7.9.9 3.1 1.6 6.5 2v.6h-24.2v-.6c3.5-.4 5.6-1 6.5-2 .9-.9 1.3-3.2 1.3-6.7v-42.7l-9.4.1c-7 .1-10.5 3.2-10.5 9.5h-.8c0-3.7.3-7.9 1-12.4h47.9c.6 4.5 1 8.7 1 12.4z"/><path d="m797.2 37.3h-.9c-.3-6.3-3.7-9.5-10.4-9.5l-9.4-.1v42.7c0 3.5.5 5.7 1.4 6.7.9.9 3.1 1.6 6.5 2v.6h-24.2v-.6c3.5-.4 5.6-1 6.5-2 .9-.9 1.3-3.2 1.3-6.7v-42.7l-9.4.1c-7 .1-10.5 3.2-10.5 9.5h-.8c0-3.7.3-7.9 1-12.4h47.9c.6 4.5 1 8.7 1 12.4z"/><path d="m849.4 65.5c0 1.4-.6 3.8-1.9 7.3-1 2.3-1.9 4.6-2.8 7h-44.5v-.6c3.4-.4 5.5-1 6.4-2s1.4-3.2 1.4-6.6v-36.3c0-3.6-.4-5.8-1.3-6.8s-3.1-1.6-6.5-1.9v-.6h43.2l.6 12.4h-.8c-.9-4.1-2-6.7-3.3-7.8-1.4-1.2-4-1.8-8-1.8l-15.3-.1v21.8l12.2-.1c3.4 0 5.8-.6 7.2-1.7s2.1-3.2 2.4-6.3h.8v19.1h-.8c-.2-3-1-5.1-2.3-6.2s-3.7-1.7-7.2-1.8l-12.2-.2v21.4c0 2 1.2 3 3.5 3l14.2-.1c4.6 0 8.4-1.7 11.2-5 1.8-2.1 2.8-4.2 3.2-6.2h.6z"/></svg>