<svg xmlns="http://www.w3.org/2000/svg" viewBox="0 0 900 100">
<style type="text/css">
	.st0{fill:#1A81C4;}
	.st1{fill:#000;}
</style>
<g>
	<path class="st1" d="M91.8,37.3H91c-0.3-6.3-3.7-9.5-10.4-9.5l-9.4-0.1v42.7c0,3.5,0.5,5.7,1.4,6.7c0.9,0.9,3.1,1.6,6.5,2v0.6H54.7
		v-0.6c3.5-0.4,5.6-1,6.5-2c0.9-0.9,1.3-3.2,1.3-6.7V27.7l-9.4,0.1c-7,0.1-10.5,3.2-10.5,9.5h-0.8c0-3.7,0.3-7.9,1-12.4h47.9
		C91.5,29.4,91.8,33.6,91.8,37.3z"/>
	<path class="st1" d="M154.7,25.5c-2.9,0.2-4.9,0.8-5.9,1.8c-1.3,1.2-1.9,3.5-1.9,6.8v36.2c0,3.4,0.6,5.6,1.8,6.8c1,1,3,1.6,6,1.8
		v0.6h-24.2v-0.6c2.9-0.2,5-0.9,6.1-2c1.1-1.1,1.7-3.3,1.7-6.7V53.1h-27.2v17.3c0,3.5,0.6,5.8,1.8,7c1,1,3,1.5,6,1.7v0.6H94.7v-0.6
		c3-0.2,5-0.7,6-1.7c1.2-1.2,1.8-3.5,1.8-7V34.2c0-3.5-0.6-5.8-1.8-6.9c-1-1-3-1.5-6-1.8v-0.6H119v0.6c-3,0.3-5.1,0.9-6.1,1.8
		c-1.2,1.1-1.8,3.4-1.8,6.9v15.9h27.2V34.2c0-3.4-0.6-5.6-1.8-6.8c-1.1-1-3.1-1.6-6.1-1.8v-0.6h24.2V25.5z"/>
	<path class="st1" d="M208.3,65.5c0,1.4-0.6,3.8-1.9,7.3c-1,2.3-1.9,4.6-2.8,7h-44.5v-0.6c3.4-0.4,5.5-1,6.4-2
		c0.9-1,1.4-3.2,1.4-6.6V34.3c0-3.6-0.4-5.8-1.3-6.8c-0.9-1-3.1-1.6-6.5-1.9v-0.6h43.2l0.6,12.4h-0.8c-0.9-4.1-2-6.7-3.3-7.8
		c-1.4-1.2-4-1.8-8-1.8l-15.3-0.1v21.8l12.2-0.1c3.4,0,5.8-0.6,7.2-1.7c1.4-1.1,2.1-3.2,2.4-6.3h0.8v19.1h-0.8c-0.2-3-1-5.1-2.3-6.2
		c-1.3-1.1-3.7-1.7-7.2-1.8l-12.2-0.2v21.4c0,2,1.2,3,3.5,3l14.2-0.1c4.6,0,8.4-1.7,11.2-5c1.8-2.1,2.8-4.2,3.2-6.2H208.3z"/>
	<path class="st0" d="M284.5,52.6c0,9.2-3,16.1-9,20.6c-5.5,4.3-13.5,6.5-23.8,6.5h-26.9v-0.6c3.3-0.2,5.4-0.8,6.4-1.8
		c1-1,1.5-3.3,1.5-6.8V33.9c0-3.5-0.6-5.7-1.7-6.7c-0.9-0.8-3-1.3-6.3-1.6v-0.6h25.8c9.2,0,17.1,2.4,23.5,7.1
		C281,37.2,284.5,44,284.5,52.6z M274.4,52.5c0-6.6-2.2-12.3-6.6-17.1c-4.8-5.2-11-7.8-18.6-7.8c-2.6,0-5.2,0.4-7.9,1.2v47.1
		c1.5,0.6,4.1,1,7.6,1C265.9,76.8,274.4,68.7,274.4,52.5z"/>
	<path class="st0" d="M337.7,79.7h-23.9v-0.6c2.2-0.1,3.7-0.4,4.6-0.9c1.1-0.6,1.7-1.5,1.7-2.9c0-1-0.4-2.5-1.3-4.3l-4.3-9.4h-22.1
		l-3.8,8.5c-1.1,2.4-1.6,4.1-1.6,5.1c0,1.2,0.5,2.1,1.5,2.7c1,0.6,2.7,0.9,5.2,1.2v0.6h-18.3v-0.6c2.6-0.3,4.4-0.8,5.4-1.5
		c1-0.7,2.1-2.3,3.2-4.8L306.3,23l23,49.8c1.1,2.5,2.1,4.1,3,4.7c0.9,0.6,2.7,1.1,5.4,1.5V79.7z M313.2,58.8l-9.9-21.5l-9.6,21.5
		H313.2z"/>
	<path class="st0" d="M365.8,79.7h-24.2v-0.6c3-0.2,5-0.8,6.1-1.9c1.1-1,1.6-3.3,1.6-6.8V34.2c0-3.5-0.6-5.8-1.8-6.9
		c-1-1-3-1.5-6-1.8v-0.6h24.2v0.6c-3,0.2-5,0.8-6,1.8c-1.2,1.1-1.8,3.4-1.8,6.9v36.2c0,3.5,0.6,5.8,1.8,6.9c1,1,3,1.5,6,1.8V79.7z"
		/>
	<path class="st0" d="M418.9,65.5c0,0.8-0.4,2.1-1.1,3.8c-1.8,4-3.2,7.5-4.4,10.5h-43v-0.6c3.1-0.3,5.1-0.9,6.1-1.8
		c1.2-1.1,1.8-3.3,1.8-6.8V34.2c0-3.5-0.6-5.8-1.8-6.9c-1-1-3-1.5-6-1.8v-0.6h24.1v0.6c-3.1,0.2-5.1,0.8-6.1,1.8
		c-1.1,1.1-1.7,3.4-1.7,6.9v39.4c0,1.5,0.7,2.5,2.2,2.7c0.3,0.1,1.7,0.1,4.2,0.1l9.4-0.1c4.9-0.1,8.8-1.6,11.9-4.6
		c2.2-2.2,3.4-4.3,3.6-6.2H418.9z"/>
	<path class="st0" d="M463.4,25.5c-3.6,0.4-6.6,2.4-9.1,6.2l-16.6,24.6v14.2c0,3.5,0.4,5.7,1.3,6.7c0.9,1,3,1.6,6.4,2v0.6h-24.2
		v-0.6c3.4-0.3,5.6-1,6.5-2c0.9-1,1.4-3.2,1.4-6.7V56.3l-16.4-24.6c-2.4-3.6-5.4-5.7-8.9-6.2v-0.6H428v0.6c-4.2,0.3-6.2,1.3-6.2,3.2
		c0,0.9,0.9,2.7,2.7,5.4l11.8,18.2l11.2-16.8c2.2-3.3,3.3-5.6,3.3-6.9c0-1.9-2.1-2.9-6.2-3.2v-0.6h18.7V25.5z"/>
	<path class="st1" d="M530.6,50.7c-3.1,0.4-5.1,1.3-5.8,2.5c-0.5,0.8-0.7,2.9-0.7,6.2v15.2c-6.5,4.2-14.2,6.3-23,6.3
		c-8.1,0-15.1-2.6-21.3-7.7c-6.7-5.5-10.1-12.5-10.1-20.9c0-8,3-14.8,8.9-20.1c5.9-5.4,13.5-8.1,22.9-8.1c5,0,9.7,0.9,14.2,2.8
		c0.5,0.2,1.1,0.3,1.8,0.3c0.8,0,1.5-0.3,2.1-1c0.6-0.6,0.9-1.4,0.8-2.1h0.8l1.9,16.7l-0.8,0.2c-4-9.5-11.1-14.3-21.3-14.3
		c-6.7,0-11.9,2-15.5,6.1c-3.8,4.3-5.8,10.7-5.8,19.1c0,7.8,2.5,14.2,7.4,19.3c4.4,4.6,9.5,6.9,15.2,6.9c5.1,0,9.4-1.4,13.1-4.2
		V59.3c0-3.4-0.7-5.7-2.2-6.9c-1-0.9-2.9-1.5-5.8-1.8V50h23.1V50.7z"/>
	<path class="st1" d="M586.2,79.7h-23.9v-0.6c2.2-0.1,3.7-0.4,4.6-0.9c1.1-0.6,1.7-1.5,1.7-2.9c0-1-0.4-2.5-1.3-4.3l-4.3-9.4H541
		l-3.8,8.5c-1.1,2.4-1.6,4.1-1.6,5.1c0,1.2,0.5,2.1,1.5,2.7c1,0.6,2.7,0.9,5.2,1.2v0.6H524v-0.6c2.6-0.3,4.4-0.8,5.4-1.5
		c1-0.7,2.1-2.3,3.2-4.8L554.9,23l23,49.8c1.1,2.5,2.1,4.1,3,4.7c0.9,0.6,2.7,1.1,5.4,1.5V79.7z M561.8,58.8l-9.9-21.5l-9.6,21.5
		H561.8z"/>
	<path class="st1" d="M640.4,65.1c0,1.9-1.1,6.7-3.2,14.6h-47l36.6-52.2L607,27.7c-3.4,0.1-5.9,0.8-7.6,2.1
		c-1.6,1.4-2.7,3.8-3.3,7.4h-0.8l1.2-12.3H639l-36.2,51.5l22.3-0.2c4.1-0.1,7.4-1.1,10-3.3c2.3-2,3.8-4.6,4.5-7.9H640.4z"/>
	<path class="st1" d="M692.5,65.5c0,1.4-0.6,3.8-1.9,7.3c-1,2.3-1.9,4.6-2.8,7h-44.5v-0.6c3.4-0.4,5.5-1,6.4-2
		c0.9-1,1.4-3.2,1.4-6.6V34.3c0-3.6-0.4-5.8-1.3-6.8c-0.9-1-3.1-1.6-6.5-1.9v-0.6h43.2l0.6,12.4h-0.8c-0.9-4.1-2-6.7-3.3-7.8
		c-1.4-1.2-4-1.8-8-1.8l-15.3-0.1v21.8l12.2-0.1c3.4,0,5.8-0.6,7.2-1.7c1.4-1.1,2.1-3.2,2.4-6.3h0.8v19.1h-0.8c-0.2-3-1-5.1-2.3-6.2
		c-1.3-1.1-3.7-1.7-7.2-1.8l-12.2-0.2v21.4c0,2,1.2,3,3.5,3l14.2-0.1c4.6,0,8.4-1.7,11.2-5c1.8-2.1,2.8-4.2,3.2-6.2H692.5z"/>
	<path class="st1" d="M742.5,37.3h-0.9c-0.3-6.3-3.7-9.5-10.4-9.5l-9.4-0.1v42.7c0,3.5,0.5,5.7,1.4,6.7c0.9,0.9,3.1,1.6,6.5,2v0.6
		h-24.2v-0.6c3.5-0.4,5.6-1,6.5-2c0.9-0.9,1.3-3.2,1.3-6.7V27.7l-9.4,0.1c-7,0.1-10.5,3.2-10.5,9.5h-0.8c0-3.7,0.3-7.9,1-12.4h47.9
		C742.1,29.4,742.5,33.6,742.5,37.3z"/>
	<path class="st1" d="M797.2,37.3h-0.9c-0.3-6.3-3.7-9.5-10.4-9.5l-9.4-0.1v42.7c0,3.5,0.5,5.7,1.4,6.7c0.9,0.9,3.1,1.6,6.5,2v0.6
		h-24.2v-0.6c3.5-0.4,5.6-1,6.5-2c0.9-0.9,1.3-3.2,1.3-6.7V27.7l-9.4,0.1c-7,0.1-10.5,3.2-10.5,9.5h-0.8c0-3.7,0.3-7.9,1-12.4h47.9
		C796.8,29.4,797.2,33.6,797.2,37.3z"/>
	<path class="st1" d="M849.4,65.5c0,1.4-0.6,3.8-1.9,7.3c-1,2.3-1.9,4.6-2.8,7h-44.5v-0.6c3.4-0.4,5.5-1,6.4-2
		c0.9-1,1.4-3.2,1.4-6.6V34.3c0-3.6-0.4-5.8-1.3-6.8c-0.9-1-3.1-1.6-6.5-1.9v-0.6h43.2l0.6,12.4h-0.8c-0.9-4.1-2-6.7-3.3-7.8
		c-1.4-1.2-4-1.8-8-1.8l-15.3-0.1v21.8l12.2-0.1c3.4,0,5.8-0.6,7.2-1.7c1.4-1.1,2.1-3.2,2.4-6.3h0.8v19.1h-0.8c-0.2-3-1-5.1-2.3-6.2
		c-1.3-1.1-3.7-1.7-7.2-1.8l-12.2-0.2v21.4c0,2,1.2,3,3.5,3l14.2-0.1c4.6,0,8.4-1.7,11.2-5c1.8-2.1,2.8-4.2,3.2-6.2H849.4z"/>
</g>
</svg>
